<svg width="1536" height="56" viewBox="0 0 1536 56" fill="none" xmlns="http://www.w3.org/2000/svg">
<rect x="20" width="56" height="56" rx="8" fill="white"/>
<g clip-path="url(#clip0_144_3729)">
<path d="M34.0057 9.56898C34.0057 8.70204 34.7021 8 35.5608 8H54.9968V18.1959H34.0057V9.56898Z" fill="#F7F7F7"/>
<path d="M54.9967 8L64.3265 18.1959H54.9967V8Z" fill="#E0E2E5"/>
<path d="M34.0057 18.1959H64.3266V46.431C64.3266 47.298 63.6302 48 62.7715 48H35.5608C34.7021 48 34.0057 47.298 34.0057 46.431V18.1959Z" fill="#F7F7F7"/>
<path d="M42.3078 42.2156C41.9265 42.2156 41.5976 42.076 41.3208 41.7976C41.0441 41.5184 40.9061 41.1862 40.9061 40.8017V26.9633C40.9061 26.5788 41.0441 26.2466 41.3208 25.9682C41.5976 25.689 41.9265 25.5494 42.3078 25.5494H56.0245C56.4057 25.5494 56.7347 25.689 57.0122 25.9682C57.2882 26.2466 57.4269 26.5788 57.4269 26.9633V40.8017C57.4269 41.1862 57.2882 41.5184 57.0122 41.7968C56.7347 42.076 56.4065 42.2156 56.0245 42.2156H42.3078ZM48.6147 36.3519H42.0082V40.8017C42.0057 40.8825 42.0359 40.9609 42.0922 41.0188C42.1494 41.0752 42.2269 41.1062 42.3078 41.1029H48.6147V36.3519ZM49.7176 36.3519V41.1029H56.0245C56.1053 41.1062 56.1829 41.0752 56.24 41.0188C56.2963 40.9609 56.3265 40.8825 56.3241 40.8017V36.3519H49.7176ZM48.6147 35.2401V30.4703H42.0082V35.2401H48.6147ZM49.7176 35.2401H56.3241V30.4703H49.7176V35.2401ZM42.0082 29.3576H56.3241V26.9633C56.3265 26.8825 56.2963 26.8041 56.24 26.7462C56.1829 26.689 56.1053 26.6588 56.0245 26.6613H42.3078C42.2269 26.6588 42.1494 26.689 42.0922 26.7462C42.0359 26.8041 42.0057 26.8825 42.0082 26.9633V29.3576Z" fill="#35B57D"/>
<path d="M32.4506 20.9413C32.0212 20.9413 31.6735 20.9413 31.6735 20.9413V12.7062C31.6735 12.7062 32.0212 12.7062 32.4506 12.7062H50.3322C50.7616 12.7062 51.1102 12.7062 51.1102 12.7062V20.9413C51.1102 20.9413 50.7616 20.9413 50.3322 20.9413H32.4506Z" fill="#35B57D"/>
<path d="M34.5902 18.9804V14.9878H37.1649V15.5935H35.3078V16.6784H37.0318V17.2841H35.3078V18.3739H37.1804V18.9804H34.5902ZM38.4376 15.9862L39.0367 17.0915L39.6457 15.9853H40.3853L39.4906 17.4833L40.4 18.9804H39.6645L39.0359 17.9021L38.4139 18.9804H37.6718L38.5763 17.4833L37.6947 15.9862H38.4376ZM42.1102 19.0392C41.8131 19.0392 41.5592 18.9731 41.3469 18.8417C41.1355 18.7111 40.9657 18.5225 40.8571 18.298C40.7437 18.0653 40.6874 17.7976 40.6874 17.4947C40.6874 17.1902 40.7453 16.9225 40.8612 16.6898C40.9698 16.4637 41.1404 16.2743 41.3527 16.1437C41.5649 16.0123 41.8163 15.947 42.1061 15.947C42.3469 15.947 42.56 15.9919 42.7453 16.0809C42.9323 16.1698 43.0808 16.2955 43.1918 16.458C43.3029 16.6188 43.3657 16.8074 43.3812 17.0229H42.7127C42.689 16.8849 42.6212 16.7584 42.5192 16.6621C42.4188 16.5649 42.2849 16.516 42.1151 16.516C41.9731 16.516 41.8474 16.5551 41.7388 16.6327C41.631 16.7102 41.5461 16.8196 41.4857 16.9641C41.4261 17.1086 41.3967 17.2817 41.3967 17.4833C41.3967 17.6874 41.4261 17.8629 41.4857 18.0098C41.5445 18.1551 41.6278 18.2678 41.7347 18.347C41.8433 18.4253 41.9698 18.4637 42.1159 18.4637C42.2188 18.4637 42.311 18.4441 42.3918 18.4049C42.4743 18.3649 42.5437 18.307 42.5984 18.2319C42.6539 18.1568 42.6923 18.0645 42.7127 17.9568H43.3812C43.3682 18.1576 43.3045 18.3519 43.1959 18.52C43.089 18.6825 42.9437 18.8098 42.7592 18.9021C42.5747 18.9935 42.3592 19.0392 42.1102 19.0392ZM45.2702 19.0392C44.9723 19.0392 44.7151 18.9764 44.4988 18.8515C44.2849 18.7266 44.1118 18.5413 44.0025 18.3176C43.8865 18.0866 43.8286 17.8139 43.8286 17.5004C43.8286 17.1927 43.8865 16.9225 44.0025 16.6898C44.1118 16.4645 44.2816 16.2751 44.4931 16.1437C44.7029 16.0123 44.9502 15.947 45.2335 15.947C45.4163 15.947 45.5894 15.9764 45.751 16.0368C45.9151 16.0947 46.0588 16.1862 46.1845 16.3094C46.3102 16.4327 46.4098 16.5902 46.4816 16.7813C46.5543 16.9706 46.5902 17.1968 46.5902 17.4596V17.676H44.1567V17.2H45.9192C45.9208 17.0751 45.8906 16.9511 45.8327 16.84C45.778 16.7355 45.6955 16.6482 45.5951 16.5886C45.4882 16.5258 45.3665 16.4939 45.2433 16.4964C45.1004 16.4964 44.9747 16.5315 44.8661 16.6017C44.7592 16.6694 44.6727 16.7633 44.6131 16.8751C44.5543 16.987 44.5233 17.1094 44.5225 17.2433V17.6588C44.5225 17.8327 44.5543 17.9821 44.6171 18.107C44.68 18.2302 44.7682 18.3249 44.8816 18.3919C44.9951 18.4564 45.1274 18.489 45.28 18.489C45.3812 18.489 45.4735 18.4751 45.5559 18.4458C45.6384 18.4164 45.7102 18.3731 45.7706 18.316C45.831 18.2588 45.8767 18.1878 45.9078 18.1029L46.5608 18.1772C46.5216 18.347 46.4408 18.5037 46.3257 18.6335C46.2041 18.7666 46.0531 18.8694 45.8849 18.9339C45.7061 19.0041 45.5012 19.0392 45.2702 19.0392ZM47.8816 14.9878V18.9804H47.182V14.9878H47.8816Z" fill="#F7F7F7"/>
</g>
<rect x="116" width="56" height="56" rx="8" fill="white"/>
<g clip-path="url(#clip1_144_3729)">
<path d="M130.006 9.56863C130.006 9.1526 130.17 8.75362 130.461 8.45944C130.753 8.16527 131.148 8 131.561 8H150.997V18.1961H130.006V9.56863Z" fill="#F7F7F7"/>
<path d="M150.997 8L160.327 18.1961H150.997V8Z" fill="#E0E2E5"/>
<path d="M130.006 18.196H160.327V46.4313C160.327 46.8474 160.163 47.2464 159.871 47.5405C159.58 47.8347 159.184 48 158.772 48H131.561C131.148 48 130.753 47.8347 130.461 47.5405C130.17 47.2464 130.006 46.8474 130.006 46.4313V18.196Z" fill="#F7F7F7"/>
<mask id="mask0_144_3729" style="mask-type:alpha" maskUnits="userSpaceOnUse" x="133" y="22" width="24" height="24">
<path d="M133.504 22.1177H156.828V45.6471H133.504V22.1177Z" fill="#D9D9D9"/>
</mask>
<g mask="url(#mask0_144_3729)">
<path d="M141.83 40.1228H152.997C153.071 40.1228 153.14 40.0914 153.203 40.0286C153.265 39.9659 153.296 39.8965 153.296 39.8212V36.718H141.83L141.83 40.1228ZM137.037 31.0471H140.728V27.6424H137.336C137.261 27.6424 137.192 27.6737 137.13 27.7365C137.101 27.7629 137.078 27.7949 137.062 27.8305C137.046 27.8662 137.037 27.9048 137.036 27.9439L137.037 31.0471ZM137.037 35.6306H140.728V32.1596H137.037V35.6306ZM137.336 40.1231H140.728V36.7184H137.037V39.8216C137.037 39.8969 137.068 39.9663 137.13 40.0294C137.192 40.0922 137.261 40.1231 137.336 40.1231ZM141.83 35.6306H153.296V32.1596H141.83V35.6306ZM141.83 31.0471H153.296V27.9439C153.296 27.8682 153.265 27.7992 153.202 27.7361C153.176 27.7071 153.145 27.6839 153.109 27.6677C153.074 27.6515 153.036 27.6428 152.997 27.642H141.83V31.0471ZM137.336 41.2353C136.955 41.2353 136.626 41.0957 136.349 40.8169C136.072 40.5377 135.934 40.2059 135.934 39.8212V27.9435C135.934 27.5592 136.072 27.2271 136.349 26.9482C136.626 26.669 136.954 26.5294 137.336 26.5294H152.997C153.378 26.5294 153.707 26.669 153.983 26.9482C154.26 27.2271 154.398 27.5588 154.398 27.9435V39.8212C154.398 40.2055 154.26 40.5377 153.984 40.8165C153.707 41.0957 153.378 41.2353 152.997 41.2353H137.336Z" fill="#35B57D"/>
</g>
<path d="M146.332 12.7059H128.451C128.022 12.7059 127.673 13.0571 127.673 13.4902V20.1569C127.673 20.5901 128.022 20.9412 128.451 20.9412H146.332C146.762 20.9412 147.11 20.5901 147.11 20.1569V13.4902C147.11 13.0571 146.762 12.7059 146.332 12.7059Z" fill="#35B57D"/>
<path d="M135.339 16.3349H134.616C134.598 16.2228 134.56 16.1151 134.502 16.0173C134.393 15.8315 134.218 15.6943 134.013 15.633C133.904 15.5983 133.79 15.5811 133.675 15.582C133.46 15.582 133.269 15.6369 133.103 15.7459C132.937 15.8538 132.807 16.0126 132.713 16.2216C132.618 16.4295 132.571 16.6836 132.571 16.984C132.571 17.2895 132.618 17.5467 132.713 17.7561C132.808 17.964 132.938 18.1212 133.103 18.2279C133.274 18.3346 133.472 18.3895 133.673 18.3859C133.792 18.3859 133.902 18.3702 134.005 18.3389C134.106 18.3081 134.201 18.2599 134.285 18.1965C134.459 18.0645 134.577 17.8709 134.616 17.6546L135.339 17.6585C135.312 17.8483 135.253 18.0263 135.163 18.1926C135.074 18.3596 134.955 18.5089 134.813 18.6334C134.664 18.7625 134.492 18.863 134.307 18.9298C134.1 19.0023 133.882 19.0378 133.663 19.0349C133.315 19.0349 133.005 18.9538 132.732 18.7914C132.459 18.6287 132.244 18.3942 132.087 18.0875C131.929 17.7808 131.851 17.413 131.851 16.984C131.851 16.5538 131.93 16.1859 132.088 15.8804C132.247 15.5738 132.463 15.3393 132.736 15.1765C133.009 15.0142 133.318 14.933 133.663 14.933C133.884 14.933 134.089 14.9644 134.278 15.0267C134.467 15.0891 134.636 15.1804 134.784 15.3012C134.932 15.4212 135.054 15.5679 135.15 15.742C135.246 15.9149 135.31 16.1126 135.339 16.3349ZM138.147 16.0851C138.14 16.0059 138.117 15.929 138.077 15.8602C138.038 15.7914 137.983 15.7324 137.918 15.6875C137.786 15.5926 137.613 15.5451 137.401 15.5451C137.251 15.5451 137.123 15.5679 137.016 15.6134C136.919 15.6514 136.834 15.7154 136.771 15.7985C136.714 15.8769 136.685 15.9655 136.683 16.0655C136.683 16.1491 136.702 16.2208 136.74 16.282C136.779 16.3432 136.83 16.3953 136.896 16.4381C136.962 16.4796 137.035 16.5149 137.114 16.5432C137.195 16.5718 137.275 16.5961 137.356 16.6153L137.727 16.7095C137.877 16.7444 138.02 16.7918 138.158 16.8514C138.297 16.911 138.422 16.9867 138.531 17.0777C138.642 17.1687 138.73 17.2785 138.794 17.4071C138.858 17.5357 138.891 17.6867 138.891 17.8593C138.891 18.0934 138.831 18.2993 138.713 18.4773C138.594 18.6542 138.423 18.7926 138.199 18.893C137.976 18.9914 137.706 19.0408 137.389 19.0408C137.081 19.0408 136.814 18.993 136.587 18.8965C136.361 18.8004 136.185 18.66 136.058 18.4753C135.931 18.291 135.863 18.0659 135.853 17.8008H136.558C136.568 17.94 136.611 18.0557 136.685 18.1479C136.76 18.2404 136.858 18.3091 136.977 18.3546C137.099 18.4 137.234 18.4228 137.383 18.4228C137.539 18.4228 137.675 18.3993 137.793 18.3526C137.911 18.3044 138.004 18.2385 138.071 18.1538C138.138 18.0679 138.172 17.9679 138.174 17.8534C138.176 17.7592 138.144 17.6676 138.083 17.5961C138.014 17.5205 137.929 17.4619 137.834 17.4247C137.713 17.3729 137.589 17.3311 137.462 17.2997L137.012 17.1828C136.686 17.0985 136.428 16.9702 136.239 16.7985C136.051 16.6259 135.957 16.3965 135.957 16.1106C135.957 15.8753 136.02 15.6695 136.146 15.4926C136.274 15.3161 136.447 15.1789 136.666 15.0808C136.885 14.9824 137.133 14.933 137.41 14.933C137.691 14.933 137.937 14.9824 138.148 15.0812C138.361 15.1785 138.528 15.3146 138.649 15.4887C138.77 15.6612 138.833 15.8604 138.837 16.0851H138.147ZM140.059 14.9875L141.089 18.1302H141.13L142.158 14.9875H142.947L141.551 18.9804H140.666L139.273 14.9875H140.059H140.059Z" fill="#F7F7F7"/>
</g>
<rect x="212" width="56" height="56" rx="8" fill="white"/>
<g clip-path="url(#clip2_144_3729)">
<path d="M226.006 9.56863C226.006 9.1526 226.17 8.75362 226.461 8.45944C226.753 8.16527 227.148 8 227.561 8H246.997V18.1961H226.006V9.56863Z" fill="#F7F7F7"/>
<path d="M246.997 8L256.327 18.1961H246.997V8Z" fill="#E0E2E5"/>
<path d="M226.006 18.196H256.327V46.4313C256.327 46.8474 256.163 47.2464 255.871 47.5405C255.58 47.8347 255.184 48 254.772 48H227.561C227.148 48 226.753 47.8347 226.461 47.5405C226.17 47.2464 226.006 46.8474 226.006 46.4313V18.196Z" fill="#F7F7F7"/>
<mask id="mask1_144_3729" style="mask-type:alpha" maskUnits="userSpaceOnUse" x="229" y="22" width="24" height="24">
<path d="M229.504 22.1177H252.828V45.6471H229.504V22.1177Z" fill="#D9D9D9"/>
</mask>
<g mask="url(#mask1_144_3729)">
<path d="M237.83 40.1228H248.997C249.071 40.1228 249.14 40.0914 249.203 40.0286C249.265 39.9659 249.296 39.8965 249.296 39.8212V36.718H237.83L237.83 40.1228ZM233.037 31.0471H236.728V27.6424H233.336C233.261 27.6424 233.192 27.6737 233.13 27.7365C233.101 27.7629 233.078 27.7949 233.062 27.8305C233.046 27.8662 233.037 27.9048 233.036 27.9439L233.037 31.0471ZM233.037 35.6306H236.728V32.1596H233.037V35.6306ZM233.336 40.1231H236.728V36.7184H233.037V39.8216C233.037 39.8969 233.068 39.9663 233.13 40.0294C233.192 40.0922 233.261 40.1231 233.336 40.1231ZM237.83 35.6306H249.296V32.1596H237.83V35.6306ZM237.83 31.0471H249.296V27.9439C249.296 27.8682 249.265 27.7992 249.202 27.7361C249.176 27.7071 249.145 27.6839 249.109 27.6677C249.074 27.6515 249.036 27.6428 248.997 27.642H237.83V31.0471ZM233.336 41.2353C232.955 41.2353 232.626 41.0957 232.349 40.8169C232.072 40.5377 231.934 40.2059 231.934 39.8212V27.9435C231.934 27.5592 232.072 27.2271 232.349 26.9482C232.626 26.669 232.954 26.5294 233.336 26.5294H248.997C249.378 26.5294 249.707 26.669 249.983 26.9482C250.26 27.2271 250.398 27.5588 250.398 27.9435V39.8212C250.398 40.2055 250.26 40.5377 249.984 40.8165C249.707 41.0957 249.378 41.2353 248.997 41.2353H233.336Z" fill="#35B57D"/>
</g>
<path d="M242.332 12.7059H224.451C224.022 12.7059 223.673 13.0571 223.673 13.4902V20.1569C223.673 20.5901 224.022 20.9412 224.451 20.9412H242.332C242.762 20.9412 243.11 20.5901 243.11 20.1569V13.4902C243.11 13.0571 242.762 12.7059 242.332 12.7059Z" fill="#35B57D"/>
<path d="M227.972 15.5938V14.9875H231.129V15.5938H229.906V18.9804H229.194V15.5938H227.972ZM233.889 16.0851C233.883 16.0059 233.859 15.929 233.82 15.8602C233.78 15.7914 233.726 15.7324 233.661 15.6875C233.528 15.5926 233.356 15.5451 233.143 15.5451C232.994 15.5451 232.865 15.5679 232.758 15.6134C232.661 15.6514 232.577 15.7154 232.513 15.7985C232.456 15.8769 232.428 15.9655 232.426 16.0655C232.426 16.1491 232.445 16.2208 232.482 16.282C232.521 16.3432 232.573 16.3953 232.639 16.4381C232.705 16.4796 232.777 16.5149 232.857 16.5432C232.937 16.5718 233.018 16.5961 233.098 16.6153L233.47 16.7095C233.619 16.7444 233.763 16.7918 233.901 16.8514C234.04 16.911 234.164 16.9867 234.274 17.0777C234.384 17.1687 234.472 17.2785 234.536 17.4071C234.601 17.5357 234.633 17.6867 234.633 17.8593C234.633 18.0934 234.574 18.2993 234.456 18.4773C234.337 18.6542 234.166 18.7926 233.941 18.893C233.718 18.9914 233.448 19.0408 233.132 19.0408C232.824 19.0408 232.556 18.993 232.33 18.8965C232.104 18.8004 231.928 18.66 231.8 18.4753C231.674 18.291 231.605 18.0659 231.595 17.8008H232.3C232.311 17.94 232.353 18.0557 232.428 18.1479C232.503 18.2404 232.6 18.3091 232.72 18.3546C232.841 18.4 232.976 18.4228 233.126 18.4228C233.282 18.4228 233.418 18.3993 233.535 18.3526C233.654 18.3044 233.747 18.2385 233.814 18.1538C233.881 18.0679 233.915 17.9679 233.916 17.8534C233.918 17.7593 233.886 17.6677 233.825 17.5961C233.756 17.5205 233.671 17.4618 233.576 17.4247C233.456 17.3729 233.332 17.3311 233.205 17.2997L232.754 17.1828C232.429 17.0985 232.171 16.9702 231.982 16.7985C231.794 16.6259 231.699 16.3965 231.699 16.1106C231.699 15.8753 231.762 15.6695 231.889 15.4926C232.016 15.3161 232.19 15.1789 232.409 15.0808C232.628 14.9824 232.876 14.933 233.153 14.933C233.434 14.933 233.68 14.9824 233.891 15.0812C234.104 15.1785 234.27 15.3146 234.391 15.4887C234.513 15.6612 234.575 15.8604 234.579 16.0851H233.889ZM235.802 14.9875L236.832 18.1302H236.873L237.901 14.9875H238.689L237.294 18.9804H236.409L235.015 14.9875H235.802Z" fill="#F7F7F7"/>
</g>
<rect x="308" width="56" height="56" rx="8" fill="white"/>
<g clip-path="url(#clip3_144_3729)">
<path d="M322.006 9.56863C322.006 9.1526 322.17 8.75362 322.461 8.45944C322.753 8.16527 323.148 8 323.561 8H342.997V18.1961H322.006V9.56863Z" fill="#F7F7F7"/>
<path d="M342.997 8L352.327 18.1961H342.997V8Z" fill="#E0E2E5"/>
<path d="M322.006 18.196H352.327V46.4313C352.327 46.8474 352.163 47.2464 351.871 47.5405C351.58 47.8347 351.184 48 350.772 48H323.561C323.148 48 322.753 47.8347 322.461 47.5405C322.17 47.2464 322.006 46.8474 322.006 46.4313V18.196Z" fill="#F7F7F7"/>
<path d="M343.491 35.5079C343.065 35.0428 342.249 34.8279 341.079 34.8279C340.44 34.8279 339.766 34.8996 339.128 35.0067C338.702 34.6134 338.348 34.1479 337.993 33.6828C337.744 33.3251 337.496 32.9671 337.283 32.5734C337.638 31.5714 337.851 30.4981 337.922 29.4243C337.922 28.4584 337.532 27.4204 336.467 27.4204C336.113 27.4204 335.758 27.6353 335.581 27.9573C335.12 28.7447 335.297 30.3549 336.042 32.0369C335.794 32.7883 335.51 33.5396 335.19 34.3624C334.907 35.0785 334.588 35.7585 334.197 36.4024C333.097 36.8318 330.792 37.9055 330.579 39.0863C330.508 39.4443 330.615 39.802 330.898 40.0169C331.147 40.2314 331.501 40.3745 331.856 40.3385C333.24 40.3385 334.623 38.4063 335.581 36.7247C336.113 36.5455 336.645 36.3667 337.212 36.2235C337.815 36.0804 338.383 35.9373 338.915 35.8298C340.405 37.1181 341.717 37.333 342.356 37.333C343.242 37.333 343.597 36.9392 343.704 36.6173C343.845 36.2235 343.775 35.7941 343.491 35.5079ZM342.533 36.1879C342.498 36.4381 342.214 36.6173 341.859 36.6173C341.753 36.6173 341.646 36.6173 341.54 36.5812C340.83 36.4024 340.156 36.0447 339.589 35.5792C340.058 35.508 340.533 35.4722 341.008 35.4722C341.327 35.4722 341.646 35.5075 341.965 35.5435C342.285 35.6153 342.639 35.7585 342.533 36.1879ZM336.184 28.2792C336.255 28.1718 336.361 28.1004 336.503 28.0647C336.858 28.0647 336.929 28.4585 336.929 28.8161C336.894 29.6309 336.75 30.4373 336.503 31.2137C335.9 29.6749 335.97 28.6373 336.184 28.2792ZM338.17 35.1498C337.78 35.2216 337.39 35.329 337 35.4361C336.716 35.5079 336.432 35.6153 336.113 35.6871C336.248 35.3738 336.39 35.0635 336.538 34.7565C336.716 34.3628 336.858 33.969 336.999 33.5753C337.141 33.7902 337.248 33.969 337.39 34.1479C337.638 34.5059 337.922 34.8279 338.17 35.1498ZM333.878 37.2255C332.991 38.6569 332.104 39.5871 331.608 39.5871C331.537 39.5871 331.431 39.5518 331.395 39.5157C331.346 39.4803 331.309 39.43 331.29 39.3722C331.271 39.3143 331.27 39.2519 331.289 39.1937C331.359 38.6569 332.389 37.9055 333.878 37.2255Z" fill="#CD433B"/>
<path d="M338.332 12.7059H320.451C320.022 12.7059 319.673 13.0571 319.673 13.4902V20.1569C319.673 20.5901 320.022 20.9412 320.451 20.9412H338.332C338.762 20.9412 339.11 20.5901 339.11 20.1569V13.4902C339.11 13.0571 338.762 12.7059 338.332 12.7059Z" fill="#CD433B"/>
<path d="M324.34 18.9804V14.9874H325.824C326.128 14.9874 326.383 15.0447 326.59 15.1592C326.789 15.2657 326.953 15.43 327.059 15.631C327.166 15.8298 327.219 16.0561 327.219 16.3094C327.219 16.5655 327.166 16.7929 327.059 16.9917C326.95 17.1921 326.786 17.3555 326.585 17.4615C326.377 17.5749 326.12 17.6313 325.815 17.6313H324.831V17.0364H325.718C325.895 17.0364 326.041 17.0051 326.155 16.9431C326.263 16.8857 326.351 16.7956 326.406 16.6855C326.461 16.5764 326.489 16.451 326.489 16.309C326.489 16.1678 326.461 16.0431 326.406 15.9349C326.35 15.8258 326.262 15.7377 326.153 15.6835C326.039 15.6223 325.893 15.5917 325.714 15.5917H325.057V18.9804H324.34ZM329.183 18.9804H327.842V14.9874H329.21C329.603 14.9874 329.941 15.0674 330.223 15.2274C330.507 15.3859 330.725 15.6141 330.876 15.9117C331.029 16.2094 331.104 16.5655 331.104 16.98C331.104 17.3957 331.028 17.7533 330.875 18.0525C330.729 18.3443 330.499 18.5844 330.215 18.7408C329.929 18.9004 329.586 18.9804 329.183 18.9804ZM328.559 18.3545H329.149C329.425 18.3545 329.654 18.3035 329.839 18.2023C330.023 18.1 330.161 17.9474 330.254 17.7443C330.347 17.5404 330.393 17.2855 330.393 16.98C330.393 16.6745 330.347 16.4212 330.254 16.2196C330.17 16.0266 330.025 15.8669 329.842 15.7655C329.662 15.6639 329.438 15.6133 329.17 15.6133H328.559V18.3545ZM331.786 18.9804V14.9874H334.321V15.5937H332.503V16.678H334.147V17.2843H332.503V18.9804H331.786Z" fill="#F7F7F7"/>
</g>
<rect x="404" width="56" height="56" rx="8" fill="white"/>
<g clip-path="url(#clip4_144_3729)">
<path d="M418.006 9.56863C418.006 9.1526 418.17 8.75362 418.461 8.45944C418.753 8.16527 419.148 8 419.561 8H438.997V18.1961H418.006V9.56863Z" fill="#F7F7F7"/>
<path d="M438.997 8L448.327 18.1961H438.997V8Z" fill="#E0E2E5"/>
<path d="M418.006 18.196H448.327V46.4313C448.327 46.8474 448.163 47.2464 447.871 47.5405C447.58 47.8347 447.184 48 446.772 48H419.561C419.148 48 418.753 47.8347 418.461 47.5405C418.17 47.2464 418.006 46.8474 418.006 46.4313V18.196Z" fill="#F7F7F7"/>
<mask id="mask2_144_3729" style="mask-type:alpha" maskUnits="userSpaceOnUse" x="421" y="22" width="24" height="24">
<path d="M421.504 22.1177H444.828V45.6471H421.504V22.1177Z" fill="#D9D9D9"/>
</mask>
<g mask="url(#mask2_144_3729)">
<path d="M424.906 42.2157V41.1032H441.427V42.2157H424.906ZM424.906 38.3224V37.2102H435.596V38.3224H424.906ZM424.906 34.4385V33.3263H441.427V34.4385H424.906ZM424.906 30.5455V29.433H435.596V30.5455H424.906ZM424.906 26.6616V25.5491H441.427V26.6616H424.906Z" fill="#3F9FE8"/>
</g>
<path d="M434.332 12.7059H416.451C416.022 12.7059 415.673 13.0571 415.673 13.4902V20.1569C415.673 20.5901 416.022 20.9412 416.451 20.9412H434.332C434.762 20.9412 435.11 20.5901 435.11 20.1569V13.4902C435.11 13.0571 434.762 12.7059 434.332 12.7059Z" fill="#3F9FE8"/>
<path d="M418.063 18.9804L416.946 14.9875H417.717L418.43 17.9216H418.467L419.228 14.9875H419.93L420.693 17.9236H420.728L421.441 14.9875H422.212L421.095 18.9804H420.388L419.595 16.1789H419.564L418.771 18.9804H418.063ZM426.033 16.9844C426.033 17.4142 425.954 17.7828 425.794 18.0895C425.635 18.3949 425.419 18.6287 425.145 18.7914C424.872 18.9538 424.562 19.0349 424.215 19.0349C423.868 19.0349 423.558 18.9538 423.284 18.7914C423.01 18.6275 422.794 18.393 422.634 18.0875C422.475 17.7808 422.397 17.413 422.397 16.984C422.397 16.5538 422.475 16.1859 422.634 15.8804C422.794 15.5738 423.01 15.3393 423.283 15.1765C423.558 15.0142 423.868 14.933 424.215 14.933C424.561 14.933 424.872 15.0142 425.144 15.1765C425.419 15.3393 425.635 15.5738 425.794 15.8804C425.954 16.1863 426.033 16.5542 426.033 16.9844ZM425.313 16.9844C425.313 16.6812 425.266 16.4259 425.172 16.2177C425.079 16.0087 424.95 15.8506 424.785 15.744C424.615 15.6346 424.417 15.5782 424.215 15.582C424 15.582 423.81 15.6361 423.645 15.744C423.48 15.8506 423.35 16.0087 423.256 16.2177C423.163 16.4255 423.117 16.6812 423.117 16.984C423.117 17.2867 423.164 17.5428 423.256 17.7522C423.35 17.96 423.48 18.1181 423.645 18.2259C423.81 18.3326 424 18.3859 424.215 18.3859C424.43 18.3859 424.62 18.3326 424.785 18.2259C424.95 18.1181 425.079 17.96 425.172 17.7522C425.266 17.5428 425.313 17.2871 425.313 16.9844ZM426.711 18.9804V14.9875H428.196C428.5 14.9875 428.755 15.0408 428.961 15.1475C429.168 15.2542 429.325 15.4036 429.431 15.5957C429.537 15.7871 429.591 16.0098 429.591 16.2647C429.591 16.5204 429.537 16.7432 429.429 16.9314C429.322 17.1185 429.164 17.2636 428.955 17.3663C428.746 17.4675 428.49 17.5181 428.186 17.5181H427.129V16.9181H428.089C428.267 16.9181 428.413 16.893 428.526 16.8436C428.639 16.7926 428.723 16.7197 428.777 16.6232C428.833 16.5259 428.86 16.4063 428.86 16.2647C428.86 16.1228 428.833 16.002 428.777 15.902C428.72 15.7993 428.632 15.7183 428.524 15.6718C428.411 15.6185 428.264 15.5918 428.085 15.5918H427.428V18.9804H426.711ZM428.756 17.171L429.736 18.9804H428.936L427.973 17.171H428.756ZM431.592 18.9804H430.251V14.9875H431.619C432.012 14.9875 432.349 15.0675 432.631 15.2275C432.915 15.3859 433.133 15.6142 433.284 15.9118C433.437 16.2095 433.513 16.5655 433.513 16.98C433.513 17.3957 433.436 17.7534 433.283 18.0526C433.138 18.3443 432.908 18.5844 432.624 18.7408C432.338 18.9004 431.994 18.9804 431.592 18.9804ZM430.968 18.3546H431.557C431.833 18.3546 432.063 18.3036 432.247 18.2024C432.431 18.0996 432.577 17.9387 432.662 17.7444C432.755 17.5404 432.802 17.2855 432.802 16.98C432.802 16.6746 432.755 16.4212 432.662 16.2196C432.578 16.0267 432.434 15.8671 432.251 15.7655C432.07 15.664 431.846 15.6134 431.578 15.6134H430.968V18.3546Z" fill="#F7F7F7"/>
</g>
<rect x="500" width="56" height="56" rx="8" fill="white"/>
<g clip-path="url(#clip5_144_3729)">
<path d="M514.006 9.56863C514.006 9.1526 514.17 8.75362 514.461 8.45944C514.753 8.16527 515.148 8 515.561 8H534.997V18.1961H514.006V9.56863Z" fill="#F7F7F7"/>
<path d="M534.997 8L544.327 18.1961H534.997V8Z" fill="#E0E2E5"/>
<path d="M514.006 18.196H544.327V46.4313C544.327 46.8474 544.163 47.2464 543.871 47.5405C543.58 47.8347 543.184 48 542.772 48H515.561C515.148 48 514.753 47.8347 514.461 47.5405C514.17 47.2464 514.006 46.8474 514.006 46.4313V18.196Z" fill="#F7F7F7"/>
<mask id="mask3_144_3729" style="mask-type:alpha" maskUnits="userSpaceOnUse" x="517" y="22" width="24" height="24">
<path d="M517.504 22.1177H540.828V45.6471H517.504V22.1177Z" fill="#D9D9D9"/>
</mask>
<g mask="url(#mask3_144_3729)">
<path d="M529.717 33.3263H537.281C537.146 31.289 536.36 29.531 534.921 28.0525C533.481 26.5745 531.747 25.789 529.717 25.6961V33.3263ZM528.615 42.0686V25.6961C526.493 25.8255 524.7 26.6815 523.235 28.2639C521.769 29.8463 521.037 31.7192 521.037 33.8823C521.037 36.0455 521.769 37.918 523.235 39.5008C524.7 41.0831 526.494 41.9392 528.615 42.0686ZM529.717 42.0686C531.747 41.9757 533.48 41.1902 534.916 39.7117C536.352 38.2337 537.14 36.4761 537.281 34.4384H529.717V42.0686ZM529.168 43.1961C527.891 43.1961 526.691 42.9517 525.567 42.4627C524.444 41.9737 523.466 41.3106 522.635 40.4721C521.804 39.6341 521.146 38.6486 520.661 37.5157C520.177 36.3823 519.934 35.1721 519.934 33.8843C519.934 32.5957 520.176 31.3851 520.661 30.2513C521.146 29.118 521.803 28.1321 522.634 27.2937C523.465 26.4553 524.442 25.7917 525.565 25.3023C526.688 24.8129 527.888 24.5686 529.164 24.5686C530.442 24.5686 531.642 24.8133 532.765 25.3031C533.888 25.7925 534.865 26.4564 535.696 27.2949C536.527 28.1333 537.185 29.1184 537.671 30.251C538.156 31.3831 538.398 32.5949 538.398 33.8851C538.398 35.1706 538.156 36.3792 537.672 37.5113C537.187 38.6435 536.529 39.6298 535.698 40.4702C534.868 41.3102 533.891 41.9745 532.768 42.4631C531.644 42.9517 530.444 43.1961 529.168 43.1961Z" fill="#E7782A"/>
</g>
<path d="M530.332 12.7059H512.451C512.022 12.7059 511.673 13.0571 511.673 13.4902V20.1569C511.673 20.5901 512.022 20.9412 512.451 20.9412H530.332C530.762 20.9412 531.11 20.5901 531.11 20.1569V13.4902C531.11 13.0571 530.762 12.7059 530.332 12.7059Z" fill="#E7782A"/>
<path d="M516.34 18.9804V14.9874H517.824C518.128 14.9874 518.383 15.0447 518.59 15.1592C518.789 15.2657 518.953 15.43 519.059 15.631C519.166 15.8298 519.219 16.0561 519.219 16.3094C519.219 16.5655 519.166 16.7929 519.059 16.9917C518.95 17.1921 518.786 17.3555 518.585 17.4615C518.377 17.5749 518.12 17.6313 517.815 17.6313H516.831V17.0364H517.718C517.895 17.0364 518.041 17.0051 518.155 16.9431C518.263 16.8857 518.351 16.7956 518.406 16.6855C518.461 16.5764 518.489 16.451 518.489 16.309C518.489 16.1678 518.461 16.0431 518.406 15.9349C518.35 15.8258 518.262 15.7377 518.153 15.6835C518.039 15.6223 517.893 15.5917 517.714 15.5917H517.057V18.9804H516.34ZM519.842 18.9804V14.9874H521.326C521.63 14.9874 521.886 15.0447 522.092 15.1592C522.299 15.2733 522.456 15.4306 522.561 15.631C522.668 15.8298 522.722 16.0561 522.722 16.3094C522.722 16.5655 522.668 16.7929 522.561 16.9917C522.453 17.1921 522.288 17.3555 522.088 17.4615C521.879 17.5749 521.622 17.6313 521.317 17.6313H520.333V17.0364H521.22C521.398 17.0364 521.544 17.0051 521.657 16.9431C521.77 16.8804 521.854 16.7949 521.908 16.6855C521.963 16.5764 521.991 16.451 521.991 16.309C521.991 16.1678 521.964 16.0431 521.908 15.9349C521.853 15.8258 521.764 15.7376 521.655 15.6835C521.542 15.6223 521.395 15.5917 521.216 15.5917H520.559V18.9804H519.842ZM523.17 15.5937V14.9874H526.328V15.5937H525.105V18.9804H524.394V15.5937H523.17Z" fill="#F7F7F7"/>
</g>
<rect x="596" width="56" height="56" rx="8" fill="white"/>
<g clip-path="url(#clip6_144_3729)">
<path d="M610.006 9.56863C610.006 9.1526 610.17 8.75362 610.461 8.45944C610.753 8.16527 611.148 8 611.561 8H630.997V18.1961H610.006V9.56863Z" fill="#F7F7F7"/>
<path d="M630.997 8L640.327 18.1961H630.997V8Z" fill="#E0E2E5"/>
<path d="M610.006 18.196H640.327V46.4313C640.327 46.8474 640.163 47.2464 639.871 47.5405C639.58 47.8347 639.184 48 638.772 48H611.561C611.148 48 610.753 47.8347 610.461 47.5405C610.17 47.2464 610.006 46.8474 610.006 46.4313V18.196Z" fill="#F7F7F7"/>
<path d="M616.356 40.5H621.533C621.533 40.3176 621.539 40.1321 621.55 39.9439C621.562 39.7552 621.576 39.5698 621.593 39.3874H616.356C616.317 39.3888 616.277 39.3821 616.24 39.3675C616.203 39.3529 616.169 39.3309 616.141 39.3027C616.113 39.2742 616.091 39.2403 616.077 39.203C616.062 39.1657 616.056 39.1258 616.057 39.0858V27.2082C616.056 27.1682 616.063 27.1283 616.077 27.091C616.091 27.0537 616.113 27.0198 616.141 26.9913C616.169 26.9632 616.203 26.9412 616.24 26.9266C616.277 26.912 616.316 26.9052 616.356 26.9066H632.018C632.057 26.9062 632.096 26.9137 632.132 26.9287C632.169 26.9437 632.202 26.9659 632.23 26.994C632.258 27.0221 632.28 27.0555 632.295 27.0923C632.31 27.129 632.317 27.1684 632.317 27.2082V28.4996C632.497 28.4827 632.68 28.4682 632.865 28.4568C633.049 28.445 633.234 28.4392 633.419 28.4392V27.2078C633.419 26.8243 633.28 26.4925 633.004 26.2133C632.727 25.9337 632.398 25.7941 632.018 25.7941H616.356C615.971 25.7941 615.641 25.9337 615.366 26.2133C615.092 26.4925 614.954 26.8239 614.954 27.2082V39.0858C614.954 39.4701 615.092 39.8015 615.366 40.0807C615.641 40.3603 615.971 40.5 616.356 40.5Z" fill="#4186E2"/>
<path d="M629.547 41.9706C628.735 41.9706 627.974 41.8161 627.265 41.5067C626.573 41.2097 625.944 40.7827 625.41 40.2487C624.884 39.7193 624.47 39.0953 624.168 38.3765C623.867 37.6573 623.716 36.8863 623.716 36.0632C623.716 35.244 623.867 34.4781 624.168 33.7655C624.458 33.0693 624.88 32.4366 625.41 31.9028C625.942 31.3699 626.572 30.9468 627.265 30.6573C627.974 30.3565 628.735 30.2059 629.547 30.2059C630.359 30.2059 631.12 30.3565 631.829 30.6573C632.521 30.9468 633.151 31.3699 633.683 31.9028C634.213 32.4367 634.635 33.0693 634.926 33.7655C635.227 34.4781 635.378 35.244 635.378 36.0636C635.378 36.8863 635.227 37.6573 634.926 38.3765C634.624 39.0953 634.21 39.7193 633.683 40.2487C633.15 40.7827 632.52 41.2097 631.829 41.5067C631.12 41.8161 630.359 41.9706 629.547 41.9706ZM629.547 41.2989C629.921 40.8944 630.238 40.4396 630.489 39.9475C630.735 39.4616 630.937 38.8926 631.094 38.2401H628.009C628.164 38.8832 628.364 39.451 628.611 39.9444C628.857 40.4384 629.173 40.8944 629.547 41.2989ZM628.573 41.1726C628.286 40.7965 628.031 40.3585 627.81 39.8589C627.582 39.3386 627.407 38.7962 627.287 38.2401H624.844C625.237 39.0401 625.731 39.6722 626.325 40.1357C626.919 40.5993 627.668 40.9451 628.573 41.173V41.1726ZM630.536 41.1632C631.329 40.9863 632.073 40.6337 632.715 40.131C633.362 39.6267 633.887 38.9799 634.249 38.2401H631.816C631.673 38.7922 631.488 39.3322 631.262 39.8553C631.045 40.351 630.803 40.7871 630.536 41.1632ZM624.62 37.5373H627.16C627.124 37.2784 627.099 37.018 627.086 36.7569C627.075 36.5258 627.07 36.2945 627.069 36.0632C627.069 35.813 627.076 35.5769 627.09 35.3534C627.107 35.1111 627.133 34.8695 627.17 34.6295H624.62C624.547 34.8565 624.494 35.0892 624.459 35.3251C624.428 35.5487 624.412 35.795 624.412 36.0632C624.412 36.3353 624.428 36.5887 624.459 36.8216C624.491 37.0553 624.544 37.2938 624.62 37.5373ZM627.876 37.5373H631.228C631.272 37.2255 631.302 36.9601 631.316 36.7408C631.344 36.2989 631.344 35.8557 631.316 35.4138C631.296 35.1513 631.267 34.8897 631.228 34.6295H627.876C627.836 34.8897 627.807 35.1513 627.787 35.4138C627.759 35.8557 627.759 36.2989 627.787 36.7408C627.801 36.9601 627.83 37.2255 627.876 37.5373ZM631.924 37.5373H634.474C634.549 37.2938 634.603 37.055 634.634 36.8216C634.665 36.5883 634.681 36.3353 634.681 36.0632C634.681 35.795 634.665 35.5487 634.634 35.3251C634.6 35.0891 634.546 34.8564 634.473 34.6295H631.939C631.974 34.9706 631.998 35.2491 632.013 35.4636C632.042 35.89 632.041 36.3181 632.008 36.7444C631.986 37.0093 631.958 37.2737 631.924 37.5373ZM631.806 33.9271H634.249C633.888 33.1357 633.388 32.4895 632.749 31.9891C632.109 31.4887 631.366 31.1581 630.52 30.9977C630.808 31.3875 631.058 31.8251 631.273 32.3106C631.487 32.7961 631.665 33.335 631.806 33.9271ZM628.009 33.9271H631.109C630.977 33.354 630.773 32.7999 630.503 32.2781C630.246 31.777 629.925 31.3124 629.547 30.8965C629.2 31.2189 628.907 31.6169 628.668 32.091C628.429 32.5648 628.209 33.1769 628.009 33.9271ZM624.844 33.9271H627.297C627.415 33.3851 627.585 32.8559 627.804 32.3467C628.008 31.8751 628.261 31.4262 628.558 31.0075C627.712 31.1718 626.975 31.5001 626.347 31.9918C625.719 32.4844 625.218 33.1291 624.844 33.9271Z" fill="#4186E2" stroke="#4186E2" stroke-width="0.5"/>
<path d="M625.944 12.7059H608.451C608.022 12.7059 607.673 13.0571 607.673 13.4902V20.1569C607.673 20.5901 608.022 20.9412 608.451 20.9412H625.944C626.373 20.9412 626.721 20.5901 626.721 20.1569V13.4902C626.721 13.0571 626.373 12.7059 625.944 12.7059Z" fill="#4186E2"/>
<path d="M610.452 18.9804L609.334 14.9874H610.106L610.819 17.9215H610.856L611.617 14.9874H612.319L613.082 17.9235H613.117L613.83 14.9874H614.601L613.484 18.9804H612.776L611.984 16.1788H611.953L611.16 18.9804H610.452ZM615.098 18.9804V14.9874H617.672V15.5937H615.815V16.678H617.539V17.2843H615.815V18.3741H617.688V18.9804H615.098ZM618.404 18.9804V14.9874H619.919C620.205 14.9874 620.443 15.0329 620.632 15.1239C620.823 15.2137 620.965 15.3364 621.059 15.4925C621.154 15.6486 621.202 15.8251 621.202 16.0227C621.202 16.1851 621.171 16.3243 621.109 16.44C621.05 16.5518 620.964 16.6475 620.86 16.7188C620.754 16.7912 620.635 16.8434 620.51 16.8729V16.9121C620.651 16.9196 620.785 16.9631 620.914 17.0423C621.044 17.1208 621.151 17.2306 621.233 17.3737C621.315 17.5168 621.357 17.6898 621.357 17.8925C621.357 18.0992 621.307 18.2847 621.208 18.4502C621.109 18.6137 620.959 18.7431 620.76 18.8384C620.56 18.9329 620.309 18.9804 620.006 18.9804H618.404ZM619.121 18.3761H619.892C620.152 18.3761 620.34 18.3259 620.454 18.2259C620.57 18.1243 620.628 17.9945 620.628 17.8361C620.63 17.7224 620.599 17.6107 620.54 17.514C620.481 17.4173 620.395 17.3396 620.294 17.2902C620.187 17.2341 620.059 17.2062 619.911 17.2062H619.121V18.3761ZM619.121 16.6859H619.83C619.954 16.6859 620.065 16.6627 620.164 16.6172C620.259 16.5745 620.34 16.5064 620.398 16.4204C620.456 16.3349 620.485 16.2333 620.485 16.1164C620.485 15.9615 620.431 15.8341 620.323 15.7341C620.216 15.6341 620.057 15.5839 619.846 15.5839H619.121V16.6859ZM621.981 18.9804V14.9874H623.465C623.769 14.9874 624.024 15.0447 624.23 15.1592C624.438 15.2733 624.594 15.4306 624.7 15.631C624.807 15.8298 624.86 16.0561 624.86 16.3094C624.86 16.5655 624.807 16.7929 624.7 16.9917C624.591 17.1921 624.427 17.3555 624.226 17.4615C624.017 17.5749 623.761 17.6313 623.455 17.6313H622.472V17.0364H623.359C623.536 17.0364 623.682 17.0051 623.795 16.9431C623.909 16.8804 623.993 16.7949 624.047 16.6855C624.102 16.5764 624.13 16.451 624.13 16.309C624.13 16.1678 624.102 16.0431 624.047 15.9349C623.991 15.8258 623.902 15.7376 623.793 15.6835C623.68 15.6223 623.534 15.5917 623.355 15.5917H622.698V18.9804H621.981Z" fill="#F7F7F7"/>
</g>
<rect x="692" width="56" height="56" rx="8" fill="white"/>
<g clip-path="url(#clip7_144_3729)">
<path d="M706.006 9.56863C706.006 9.1526 706.17 8.75362 706.461 8.45944C706.753 8.16527 707.148 8 707.561 8H726.997V18.1961H706.006V9.56863Z" fill="#F7F7F7"/>
<path d="M726.997 8L736.327 18.1961H726.997V8Z" fill="#E0E2E5"/>
<path d="M706.006 18.196H736.327V46.4313C736.327 46.8474 736.163 47.2464 735.871 47.5405C735.58 47.8347 735.184 48 734.772 48H707.561C707.148 48 706.753 47.8347 706.461 47.5405C706.17 47.2464 706.006 46.8474 706.006 46.4313V18.196Z" fill="#F7F7F7"/>
<mask id="mask4_144_3729" style="mask-type:alpha" maskUnits="userSpaceOnUse" x="709" y="22" width="24" height="24">
<path d="M709.504 22.1177H732.828V45.6471H709.504V22.1177Z" fill="#D9D9D9"/>
</mask>
<g mask="url(#mask4_144_3729)">
<path d="M725.053 36.6729L727.754 33.9482L726.949 33.1114L725.633 34.429V31.0918H724.474V34.429L723.158 33.1114L722.353 33.9482L725.053 36.6729ZM713.336 41.2353C712.955 41.2353 712.626 41.0957 712.349 40.8169C712.072 40.5377 711.934 40.2059 711.934 39.8212V27.9435C711.934 27.5592 712.072 27.2271 712.349 26.9482C712.626 26.669 712.954 26.5294 713.336 26.5294H728.997C729.378 26.5294 729.707 26.669 729.983 26.9482C730.26 27.2271 730.398 27.5588 730.398 27.9435V39.8212C730.398 40.2055 730.26 40.5377 729.984 40.8165C729.707 41.0957 729.378 41.2353 728.997 41.2353H713.336ZM713.336 40.1228H728.997C729.071 40.1228 729.14 40.0914 729.203 40.0286C729.265 39.9659 729.296 39.8965 729.296 39.8212V27.9435C729.296 27.8678 729.265 27.7988 729.203 27.7357C729.14 27.6729 729.071 27.6416 728.997 27.6416H713.336C713.261 27.6416 713.192 27.6729 713.13 27.7357C713.067 27.7988 713.036 27.8678 713.036 27.9435V39.8212C713.036 39.8965 713.067 39.9659 713.13 40.029C713.192 40.0918 713.261 40.1228 713.336 40.1228ZM714.984 36.6729H715.965V32.082H717.468V35.1475H718.449V32.082H720.075V36.6729H721.056V31.9216C721.056 31.7177 720.968 31.5286 720.791 31.3541C720.615 31.1792 720.429 31.0918 720.234 31.0918H715.806C715.604 31.0918 715.417 31.1792 715.244 31.3545C715.071 31.5286 714.984 31.718 714.984 31.9216V36.6729Z" fill="#34BEC4"/>
</g>
<path d="M722.332 12.7059H704.451C704.022 12.7059 703.673 13.0571 703.673 13.4902V20.1569C703.673 20.5901 704.022 20.9412 704.451 20.9412H722.332C722.762 20.9412 723.11 20.5901 723.11 20.1569V13.4902C723.11 13.0571 722.762 12.7059 722.332 12.7059Z" fill="#34BEC4"/>
<path d="M704.672 15.629H705.336L706.036 17.3537H706.066L706.767 15.629H707.43V18.1961H706.908V16.5255H706.887L706.229 18.1835H705.873L705.215 16.5192H705.193V18.1961H704.673L704.672 15.629ZM708.373 18.2326C708.251 18.2326 708.142 18.211 708.047 18.1686C707.955 18.1278 707.876 18.0611 707.821 17.9765C707.766 17.8914 707.739 17.7855 707.739 17.6584C707.739 17.5514 707.759 17.4616 707.797 17.389C707.836 17.3161 707.889 17.2577 707.956 17.2133C708.023 17.169 708.1 17.1357 708.185 17.1133C708.271 17.0906 708.362 17.0749 708.456 17.0655C708.567 17.0537 708.656 17.0431 708.724 17.033C708.792 17.022 708.841 17.0063 708.872 16.9855C708.887 16.9754 708.899 16.9615 708.907 16.9452C708.915 16.9289 708.919 16.9108 708.918 16.8926V16.8851C708.918 16.8055 708.893 16.7439 708.844 16.7008C708.795 16.6577 708.725 16.6357 708.635 16.6357C708.54 16.6357 708.464 16.6569 708.407 16.6996C708.353 16.738 708.314 16.7937 708.295 16.8577L707.806 16.8173C707.831 16.7004 707.88 16.5992 707.953 16.5141C708.026 16.4279 708.12 16.362 708.235 16.3161C708.351 16.269 708.485 16.2459 708.637 16.2459C708.743 16.2459 708.845 16.2584 708.942 16.2835C709.039 16.3086 709.126 16.3475 709.201 16.4C709.277 16.4526 709.337 16.5204 709.382 16.6031C709.425 16.6851 709.448 16.7831 709.448 16.8973V18.1961H708.945V17.9294H708.931C708.9 17.9897 708.858 18.0435 708.807 18.0882C708.756 18.1333 708.695 18.169 708.622 18.1949C708.55 18.22 708.467 18.2326 708.373 18.2326ZM708.524 17.8639C708.602 17.8639 708.671 17.8482 708.73 17.8177C708.788 17.7882 708.836 17.7441 708.871 17.6898C708.905 17.6355 708.923 17.5722 708.922 17.5079V17.3039C708.9 17.3169 708.877 17.3269 708.853 17.3337C708.822 17.3428 708.79 17.3507 708.758 17.3573C708.722 17.3643 708.686 17.3707 708.651 17.3765L708.554 17.3902C708.492 17.3992 708.437 17.4137 708.391 17.4341C708.349 17.4512 708.311 17.4793 708.283 17.5157C708.256 17.5519 708.243 17.5962 708.245 17.6412C708.245 17.7133 708.271 17.769 708.323 17.8075C708.383 17.847 708.453 17.8667 708.524 17.8639H708.524ZM709.823 18.1961V16.2706H710.336V16.6067H710.356C710.391 16.4875 710.449 16.3973 710.531 16.3361C710.613 16.2741 710.707 16.2435 710.814 16.2435C710.87 16.2438 710.926 16.25 710.981 16.262V16.7361C710.908 16.7174 710.833 16.7078 710.757 16.7075C710.68 16.7075 710.61 16.7243 710.549 16.7584C710.487 16.7921 710.435 16.8427 710.401 16.9043C710.366 16.966 710.349 17.0362 710.352 17.1071V18.1961H709.823ZM711.699 17.642L711.7 17.0016H711.777L712.388 16.271H712.996L712.175 17.2384H712.049L711.699 17.642ZM711.219 18.1961V15.629H711.749V18.1961H711.219ZM712.412 18.1961L711.851 17.3577L712.203 16.9804L713.032 18.1961H712.412ZM713.845 18.2275C713.7 18.2275 713.569 18.1898 713.452 18.1145C713.335 18.0384 713.242 17.9271 713.173 17.78C713.105 17.6322 713.071 17.4506 713.071 17.2361C713.071 17.0153 713.106 16.8322 713.177 16.6859C713.247 16.5388 713.341 16.429 713.458 16.3565C713.574 16.2833 713.708 16.245 713.844 16.2459C713.936 16.2427 714.028 16.2615 714.111 16.3008C714.183 16.3369 714.241 16.382 714.285 16.4365C714.33 16.4898 714.364 16.5424 714.387 16.5941H714.403V15.6294H714.931V18.1961H714.409V17.8879H714.387C714.359 17.9456 714.324 17.9992 714.281 18.0471C714.233 18.1019 714.173 18.1458 714.107 18.1761C714.024 18.2125 713.935 18.2303 713.845 18.2275ZM714.013 17.8024C714.091 17.805 714.167 17.7803 714.229 17.7326C714.289 17.6847 714.334 17.6184 714.366 17.5329C714.398 17.4479 714.414 17.3479 714.414 17.2333C714.414 17.1192 714.399 17.0196 714.367 16.9353C714.341 16.8583 714.294 16.7904 714.231 16.7396C714.168 16.6925 714.091 16.6682 714.013 16.6706C713.934 16.6682 713.856 16.6936 713.793 16.7424C713.73 16.7942 713.683 16.8628 713.658 16.9404C713.625 17.0347 713.61 17.134 713.612 17.2337C713.612 17.3455 713.627 17.4447 713.658 17.5306C713.689 17.6157 713.735 17.6828 713.793 17.731C713.856 17.7797 713.934 17.8049 714.013 17.8024H714.013ZM715.708 18.1961L715.189 16.2706H715.724L716.019 17.5647H716.037L716.345 16.2706H716.871L717.184 17.5569H717.2L717.491 16.2706H718.025L717.507 18.1961H716.947L716.618 16.9855H716.595L716.266 18.1961H715.707H715.708ZM719.087 18.2337C718.894 18.2337 718.727 18.1922 718.586 18.1094C718.447 18.027 718.335 17.9062 718.262 17.7612C718.186 17.6118 718.148 17.4384 718.148 17.2412C718.148 17.042 718.186 16.8686 718.262 16.7196C718.334 16.5743 718.447 16.4533 718.586 16.3714C718.727 16.2879 718.894 16.2459 719.087 16.2459C719.28 16.2459 719.446 16.2879 719.586 16.3714C719.727 16.4537 719.836 16.5702 719.912 16.7196C719.988 16.8686 720.026 17.0424 720.026 17.2412C720.026 17.438 719.988 17.6118 719.912 17.7612C719.839 17.9065 719.726 18.0276 719.586 18.1098C719.446 18.1922 719.28 18.2337 719.087 18.2337ZM719.09 17.82C719.169 17.8227 719.248 17.7959 719.309 17.7447C719.371 17.6888 719.417 17.617 719.442 17.5369C719.474 17.4403 719.49 17.339 719.488 17.2373C719.488 17.1255 719.473 17.0255 719.442 16.9377C719.417 16.8576 719.371 16.7858 719.309 16.7298C719.248 16.6779 719.169 16.6506 719.089 16.6533C719.008 16.6508 718.929 16.678 718.866 16.7298C718.803 16.7856 718.756 16.8574 718.73 16.9377C718.699 17.0344 718.684 17.1356 718.686 17.2373C718.686 17.3494 718.7 17.449 718.73 17.5369C718.761 17.6247 718.806 17.6937 718.866 17.7447C718.929 17.7958 719.009 17.8225 719.09 17.82ZM720.865 17.0828V18.1961H720.335V16.2706H720.84V16.6106H720.862C720.902 16.501 720.977 16.4077 721.074 16.3447C721.174 16.2788 721.294 16.2459 721.436 16.2459C721.569 16.2459 721.684 16.2753 721.783 16.3337C721.881 16.3922 721.958 16.4757 722.012 16.5843C722.067 16.6922 722.094 16.8208 722.094 16.9702V18.1961H721.565V17.0655C721.566 16.9479 721.536 16.8557 721.476 16.7898C721.415 16.7231 721.332 16.6894 721.226 16.6894C721.16 16.6882 721.095 16.7043 721.037 16.7361C720.983 16.7677 720.939 16.8147 720.91 16.8714C720.879 16.9374 720.863 17.0099 720.865 17.0831V17.0828Z" fill="#F7F7F7"/>
</g>
<rect x="788" width="56" height="56" rx="8" fill="white"/>
<g clip-path="url(#clip8_144_3729)">
<path d="M802.006 9.56898C802.006 8.70204 802.702 8 803.561 8H822.997V18.1959H802.006V9.56898Z" fill="#F7F7F7"/>
<path d="M822.997 8L832.327 18.1959H822.997V8Z" fill="#E0E2E5"/>
<path d="M802.006 18.1959H832.327V46.431C832.327 47.298 831.63 48 830.772 48H803.561C802.702 48 802.006 47.298 802.006 46.431V18.1959Z" fill="#F7F7F7"/>
<path d="M810.308 42.2156C809.927 42.2156 809.598 42.076 809.321 41.7976C809.044 41.5184 808.906 41.1862 808.906 40.8017V26.9633C808.906 26.5788 809.044 26.2466 809.321 25.9682C809.598 25.689 809.927 25.5494 810.308 25.5494H824.025C824.406 25.5494 824.735 25.689 825.012 25.9682C825.288 26.2466 825.427 26.5788 825.427 26.9633V40.8017C825.427 41.1862 825.288 41.5184 825.012 41.7968C824.735 42.076 824.407 42.2156 824.025 42.2156H810.308ZM816.615 36.3519H810.008V40.8017C810.006 40.8825 810.036 40.9609 810.092 41.0188C810.15 41.0752 810.227 41.1062 810.308 41.1029H816.615V36.3519ZM817.718 36.3519V41.1029H824.025C824.105 41.1062 824.183 41.0752 824.24 41.0188C824.296 40.9609 824.327 40.8825 824.324 40.8017V36.3519H817.718ZM816.615 35.2401V30.4703H810.008V35.2401H816.615ZM817.718 35.2401H824.324V30.4703H817.718V35.2401ZM810.008 29.3576H824.324V26.9633C824.327 26.8825 824.296 26.8041 824.24 26.7462C824.183 26.689 824.105 26.6588 824.025 26.6613H810.308C810.227 26.6588 810.15 26.689 810.092 26.7462C810.036 26.8041 810.006 26.8825 810.008 26.9633V29.3576Z" fill="#35B57D"/>
<path d="M800.451 20.9413C800.021 20.9413 799.674 20.9413 799.674 20.9413V12.7062C799.674 12.7062 800.021 12.7062 800.451 12.7062H818.332C818.762 12.7062 819.11 12.7062 819.11 12.7062V20.9413C819.11 20.9413 818.762 20.9413 818.332 20.9413H800.451Z" fill="#35B57D"/>
<path d="M802.59 18.9804V14.9878H805.165V15.5935H803.308V16.6784H805.032V17.2841H803.308V18.3739H805.181V18.9804H802.59ZM806.438 15.9862L807.037 17.0915L807.646 15.9853H808.385L807.491 17.4833L808.4 18.9804H807.665L807.036 17.9021L806.414 18.9804H805.672L806.576 17.4833L805.695 15.9862H806.438ZM810.11 19.0392C809.813 19.0392 809.559 18.9731 809.347 18.8417C809.136 18.7111 808.966 18.5225 808.857 18.298C808.744 18.0653 808.687 17.7976 808.687 17.4947C808.687 17.1902 808.745 16.9225 808.861 16.6898C808.97 16.4637 809.141 16.2743 809.353 16.1437C809.565 16.0123 809.816 15.947 810.106 15.947C810.347 15.947 810.56 15.9919 810.745 16.0809C810.932 16.1698 811.081 16.2955 811.192 16.458C811.303 16.6188 811.366 16.8074 811.381 17.0229H810.713C810.689 16.8849 810.621 16.7584 810.519 16.6621C810.419 16.5649 810.285 16.516 810.115 16.516C809.973 16.516 809.847 16.5551 809.739 16.6327C809.631 16.7102 809.546 16.8196 809.486 16.9641C809.426 17.1086 809.397 17.2817 809.397 17.4833C809.397 17.6874 809.426 17.8629 809.486 18.0098C809.545 18.1551 809.628 18.2678 809.735 18.347C809.843 18.4253 809.97 18.4637 810.116 18.4637C810.219 18.4637 810.311 18.4441 810.392 18.4049C810.474 18.3649 810.544 18.307 810.598 18.2319C810.654 18.1568 810.692 18.0645 810.713 17.9568H811.381C811.368 18.1576 811.305 18.3519 811.196 18.52C811.089 18.6825 810.944 18.8098 810.759 18.9021C810.575 18.9935 810.359 19.0392 810.11 19.0392ZM813.27 19.0392C812.972 19.0392 812.715 18.9764 812.499 18.8515C812.285 18.7266 812.112 18.5413 812.003 18.3176C811.887 18.0866 811.829 17.8139 811.829 17.5004C811.829 17.1927 811.887 16.9225 812.003 16.6898C812.112 16.4645 812.282 16.2751 812.493 16.1437C812.703 16.0123 812.95 15.947 813.234 15.947C813.416 15.947 813.59 15.9764 813.751 16.0368C813.915 16.0947 814.059 16.1862 814.185 16.3094C814.31 16.4327 814.41 16.5902 814.482 16.7813C814.554 16.9706 814.59 17.1968 814.59 17.4596V17.676H812.157V17.2H813.919C813.921 17.0751 813.891 16.9511 813.833 16.84C813.778 16.7355 813.696 16.6482 813.595 16.5886C813.488 16.5258 813.367 16.4939 813.243 16.4964C813.101 16.4964 812.975 16.5315 812.866 16.6017C812.759 16.6694 812.673 16.7633 812.613 16.8751C812.554 16.987 812.523 17.1094 812.523 17.2433V17.6588C812.523 17.8327 812.554 17.9821 812.617 18.107C812.68 18.2302 812.768 18.3249 812.882 18.3919C812.995 18.4564 813.127 18.489 813.28 18.489C813.381 18.489 813.474 18.4751 813.556 18.4458C813.638 18.4164 813.71 18.3731 813.771 18.316C813.831 18.2588 813.877 18.1878 813.908 18.1029L814.561 18.1772C814.522 18.347 814.441 18.5037 814.326 18.6335C814.204 18.7666 814.053 18.8694 813.885 18.9339C813.706 19.0041 813.501 19.0392 813.27 19.0392ZM815.882 14.9878V18.9804H815.182V14.9878H815.882Z" fill="#F7F7F7"/>
</g>
<rect x="884" width="56" height="56" rx="8" fill="white"/>
<g clip-path="url(#clip9_144_3729)">
<path d="M898.006 9.56863C898.006 9.1526 898.17 8.75362 898.461 8.45944C898.753 8.16527 899.148 8 899.561 8H918.997V18.1961H898.006V9.56863Z" fill="#F7F7F7"/>
<path d="M918.997 8L928.327 18.1961H918.997V8Z" fill="#E0E2E5"/>
<path d="M898.006 18.196H928.327V46.4313C928.327 46.8474 928.163 47.2464 927.871 47.5405C927.58 47.8347 927.184 48 926.772 48H899.561C899.148 48 898.753 47.8347 898.461 47.5405C898.17 47.2464 898.006 46.8474 898.006 46.4313V18.196Z" fill="#F7F7F7"/>
<mask id="mask5_144_3729" style="mask-type:alpha" maskUnits="userSpaceOnUse" x="901" y="22" width="24" height="24">
<path d="M901.504 22.1177H924.828V45.6471H901.504V22.1177Z" fill="#D9D9D9"/>
</mask>
<g mask="url(#mask5_144_3729)">
<path d="M909.83 40.1228H920.997C921.071 40.1228 921.14 40.0914 921.203 40.0286C921.265 39.9659 921.296 39.8965 921.296 39.8212V36.718H909.83L909.83 40.1228ZM905.037 31.0471H908.728V27.6424H905.336C905.261 27.6424 905.192 27.6737 905.13 27.7365C905.101 27.7629 905.078 27.7949 905.062 27.8305C905.046 27.8662 905.037 27.9048 905.036 27.9439L905.037 31.0471ZM905.037 35.6306H908.728V32.1596H905.037V35.6306ZM905.336 40.1231H908.728V36.7184H905.037V39.8216C905.037 39.8969 905.068 39.9663 905.13 40.0294C905.192 40.0922 905.261 40.1231 905.336 40.1231ZM909.83 35.6306H921.296V32.1596H909.83V35.6306ZM909.83 31.0471H921.296V27.9439C921.296 27.8682 921.264 27.7992 921.202 27.7361C921.176 27.7071 921.144 27.6839 921.109 27.6677C921.074 27.6515 921.035 27.6428 920.997 27.642H909.83V31.0471ZM905.336 41.2353C904.955 41.2353 904.625 41.0957 904.349 40.8169C904.072 40.5377 903.934 40.2059 903.934 39.8212V27.9435C903.934 27.5592 904.072 27.2271 904.349 26.9482C904.625 26.669 904.954 26.5294 905.336 26.5294H920.997C921.378 26.5294 921.707 26.669 921.983 26.9482C922.26 27.2271 922.398 27.5588 922.398 27.9435V39.8212C922.398 40.2055 922.26 40.5377 921.984 40.8165C921.707 41.0957 921.378 41.2353 920.997 41.2353H905.336Z" fill="#35B57D"/>
</g>
<path d="M914.332 12.7059H896.451C896.022 12.7059 895.674 13.0571 895.674 13.4902V20.1569C895.674 20.5901 896.022 20.9412 896.451 20.9412H914.332C914.762 20.9412 915.11 20.5901 915.11 20.1569V13.4902C915.11 13.0571 914.762 12.7059 914.332 12.7059Z" fill="#35B57D"/>
<path d="M903.339 16.3349H902.616C902.598 16.2228 902.56 16.1151 902.502 16.0173C902.393 15.8315 902.219 15.6943 902.013 15.633C901.904 15.5983 901.79 15.5811 901.675 15.582C901.46 15.582 901.269 15.6369 901.103 15.7459C900.937 15.8538 900.807 16.0126 900.713 16.2216C900.619 16.4295 900.572 16.6836 900.572 16.984C900.572 17.2895 900.619 17.5467 900.713 17.7561C900.808 17.964 900.938 18.1212 901.103 18.2279C901.274 18.3346 901.472 18.3895 901.673 18.3859C901.792 18.3859 901.903 18.3702 902.006 18.3389C902.106 18.3081 902.201 18.2599 902.285 18.1965C902.46 18.0645 902.578 17.8709 902.616 17.6546L903.339 17.6585C903.312 17.8483 903.253 18.0263 903.163 18.1926C903.074 18.3596 902.955 18.5089 902.813 18.6334C902.664 18.7625 902.492 18.863 902.307 18.9298C902.1 19.0023 901.882 19.0378 901.663 19.0349C901.316 19.0349 901.005 18.9538 900.732 18.7914C900.459 18.6287 900.244 18.3942 900.087 18.0875C899.929 17.7808 899.851 17.413 899.851 16.984C899.851 16.5538 899.93 16.1859 900.088 15.8804C900.247 15.5738 900.463 15.3393 900.736 15.1765C901.009 15.0142 901.318 14.933 901.663 14.933C901.884 14.933 902.089 14.9644 902.278 15.0267C902.467 15.0891 902.636 15.1804 902.785 15.3012C902.932 15.4212 903.054 15.5679 903.15 15.742C903.246 15.9149 903.31 16.1126 903.339 16.3349ZM906.147 16.0851C906.14 16.0059 906.117 15.929 906.077 15.8602C906.038 15.7914 905.984 15.7324 905.918 15.6875C905.786 15.5926 905.613 15.5451 905.401 15.5451C905.251 15.5451 905.123 15.5679 905.016 15.6134C904.919 15.6514 904.834 15.7154 904.771 15.7985C904.714 15.8769 904.685 15.9655 904.683 16.0655C904.683 16.1491 904.703 16.2208 904.74 16.282C904.779 16.3432 904.83 16.3953 904.896 16.4381C904.962 16.4796 905.035 16.5149 905.115 16.5432C905.195 16.5718 905.275 16.5961 905.356 16.6153L905.727 16.7095C905.877 16.7444 906.02 16.7918 906.158 16.8514C906.297 16.911 906.422 16.9867 906.531 17.0777C906.642 17.1687 906.73 17.2785 906.794 17.4071C906.858 17.5357 906.891 17.6867 906.891 17.8593C906.891 18.0934 906.831 18.2993 906.713 18.4773C906.594 18.6542 906.423 18.7926 906.199 18.893C905.976 18.9914 905.706 19.0408 905.389 19.0408C905.081 19.0408 904.814 18.993 904.587 18.8965C904.362 18.8004 904.185 18.66 904.058 18.4753C903.931 18.291 903.863 18.0659 903.853 17.8008H904.558C904.568 17.94 904.611 18.0557 904.685 18.1479C904.76 18.2404 904.858 18.3091 904.977 18.3546C905.099 18.4 905.234 18.4228 905.383 18.4228C905.539 18.4228 905.676 18.3993 905.793 18.3526C905.911 18.3044 906.004 18.2385 906.071 18.1538C906.138 18.0679 906.172 17.9679 906.174 17.8534C906.176 17.7592 906.144 17.6676 906.083 17.5961C906.014 17.5205 905.929 17.4619 905.834 17.4247C905.714 17.3729 905.589 17.3311 905.462 17.2997L905.012 17.1828C904.686 17.0985 904.428 16.9702 904.239 16.7985C904.051 16.6259 903.957 16.3965 903.957 16.1106C903.957 15.8753 904.02 15.6695 904.146 15.4926C904.274 15.3161 904.447 15.1789 904.666 15.0808C904.885 14.9824 905.133 14.933 905.41 14.933C905.691 14.933 905.937 14.9824 906.149 15.0812C906.361 15.1785 906.528 15.3146 906.649 15.4887C906.77 15.6612 906.833 15.8604 906.837 16.0851H906.147ZM908.059 14.9875L909.089 18.1302H909.13L910.158 14.9875H910.947L909.551 18.9804H908.666L907.273 14.9875H908.06H908.059Z" fill="#F7F7F7"/>
</g>
<rect x="980" width="56" height="56" rx="8" fill="white"/>
<g clip-path="url(#clip10_144_3729)">
<path d="M994.006 9.56863C994.006 9.1526 994.17 8.75362 994.461 8.45944C994.753 8.16527 995.148 8 995.561 8H1015V18.1961H994.006V9.56863Z" fill="#F7F7F7"/>
<path d="M1015 8L1024.33 18.1961H1015V8Z" fill="#E0E2E5"/>
<path d="M994.006 18.196H1024.33V46.4313C1024.33 46.8474 1024.16 47.2464 1023.87 47.5405C1023.58 47.8347 1023.18 48 1022.77 48H995.561C995.148 48 994.753 47.8347 994.461 47.5405C994.17 47.2464 994.006 46.8474 994.006 46.4313V18.196Z" fill="#F7F7F7"/>
<mask id="mask6_144_3729" style="mask-type:alpha" maskUnits="userSpaceOnUse" x="997" y="22" width="24" height="24">
<path d="M997.504 22.1177H1020.83V45.6471H997.504V22.1177Z" fill="#D9D9D9"/>
</mask>
<g mask="url(#mask6_144_3729)">
<path d="M1005.83 40.1228H1017C1017.07 40.1228 1017.14 40.0914 1017.2 40.0286C1017.26 39.9659 1017.3 39.8965 1017.3 39.8212V36.718H1005.83L1005.83 40.1228ZM1001.04 31.0471H1004.73V27.6424H1001.34C1001.26 27.6424 1001.19 27.6737 1001.13 27.7365C1001.1 27.7629 1001.08 27.7949 1001.06 27.8305C1001.05 27.8662 1001.04 27.9048 1001.04 27.9439L1001.04 31.0471ZM1001.04 35.6306H1004.73V32.1596H1001.04V35.6306ZM1001.34 40.1231H1004.73V36.7184H1001.04V39.8216C1001.04 39.8969 1001.07 39.9663 1001.13 40.0294C1001.19 40.0922 1001.26 40.1231 1001.34 40.1231ZM1005.83 35.6306H1017.3V32.1596H1005.83V35.6306ZM1005.83 31.0471H1017.3V27.9439C1017.3 27.8682 1017.26 27.7992 1017.2 27.7361C1017.18 27.7071 1017.14 27.6839 1017.11 27.6677C1017.07 27.6515 1017.04 27.6428 1017 27.642H1005.83V31.0471ZM1001.34 41.2353C1000.95 41.2353 1000.63 41.0957 1000.35 40.8169C1000.07 40.5377 999.934 40.2059 999.934 39.8212V27.9435C999.934 27.5592 1000.07 27.2271 1000.35 26.9482C1000.63 26.669 1000.95 26.5294 1001.34 26.5294H1017C1017.38 26.5294 1017.71 26.669 1017.98 26.9482C1018.26 27.2271 1018.4 27.5588 1018.4 27.9435V39.8212C1018.4 40.2055 1018.26 40.5377 1017.98 40.8165C1017.71 41.0957 1017.38 41.2353 1017 41.2353H1001.34Z" fill="#35B57D"/>
</g>
<path d="M1010.33 12.7059H992.451C992.022 12.7059 991.674 13.0571 991.674 13.4902V20.1569C991.674 20.5901 992.022 20.9412 992.451 20.9412H1010.33C1010.76 20.9412 1011.11 20.5901 1011.11 20.1569V13.4902C1011.11 13.0571 1010.76 12.7059 1010.33 12.7059Z" fill="#35B57D"/>
<path d="M995.972 15.5938V14.9875H999.129V15.5938H997.906V18.9804H997.195V15.5938H995.972ZM1001.89 16.0851C1001.88 16.0059 1001.86 15.929 1001.82 15.8602C1001.78 15.7914 1001.73 15.7324 1001.66 15.6875C1001.53 15.5926 1001.36 15.5451 1001.14 15.5451C1000.99 15.5451 1000.87 15.5679 1000.76 15.6134C1000.66 15.6514 1000.58 15.7154 1000.51 15.7985C1000.46 15.8769 1000.43 15.9655 1000.43 16.0655C1000.43 16.1491 1000.44 16.2208 1000.48 16.282C1000.52 16.3432 1000.57 16.3953 1000.64 16.4381C1000.7 16.4796 1000.78 16.5149 1000.86 16.5432C1000.94 16.5718 1001.02 16.5961 1001.1 16.6153L1001.47 16.7095C1001.62 16.7444 1001.76 16.7918 1001.9 16.8514C1002.04 16.911 1002.16 16.9867 1002.27 17.0777C1002.38 17.1687 1002.47 17.2785 1002.54 17.4071C1002.6 17.5357 1002.63 17.6867 1002.63 17.8593C1002.63 18.0934 1002.57 18.2993 1002.46 18.4773C1002.34 18.6542 1002.17 18.7926 1001.94 18.893C1001.72 18.9914 1001.45 19.0408 1001.13 19.0408C1000.82 19.0408 1000.56 18.993 1000.33 18.8965C1000.1 18.8004 999.928 18.66 999.8 18.4753C999.674 18.291 999.605 18.0659 999.595 17.8008H1000.3C1000.31 17.94 1000.35 18.0557 1000.43 18.1479C1000.5 18.2404 1000.6 18.3091 1000.72 18.3546C1000.84 18.4 1000.98 18.4228 1001.13 18.4228C1001.28 18.4228 1001.42 18.3993 1001.54 18.3526C1001.65 18.3044 1001.75 18.2385 1001.81 18.1538C1001.88 18.0679 1001.91 17.9679 1001.92 17.8534C1001.92 17.7593 1001.89 17.6677 1001.83 17.5961C1001.76 17.5205 1001.67 17.4618 1001.58 17.4247C1001.46 17.3729 1001.33 17.3311 1001.21 17.2997L1000.75 17.1828C1000.43 17.0985 1000.17 16.9702 999.982 16.7985C999.794 16.6259 999.7 16.3965 999.7 16.1106C999.7 15.8753 999.763 15.6695 999.889 15.4926C1000.02 15.3161 1000.19 15.1789 1000.41 15.0808C1000.63 14.9824 1000.88 14.933 1001.15 14.933C1001.43 14.933 1001.68 14.9824 1001.89 15.0812C1002.1 15.1785 1002.27 15.3146 1002.39 15.4887C1002.51 15.6612 1002.58 15.8604 1002.58 16.0851H1001.89ZM1003.8 14.9875L1004.83 18.1302H1004.87L1005.9 14.9875H1006.69L1005.29 18.9804H1004.41L1003.02 14.9875H1003.8Z" fill="#F7F7F7"/>
</g>
<rect x="1076" width="56" height="56" rx="8" fill="white"/>
<g clip-path="url(#clip11_144_3729)">
<path d="M1090.01 9.56863C1090.01 9.1526 1090.17 8.75362 1090.46 8.45944C1090.75 8.16527 1091.15 8 1091.56 8H1111V18.1961H1090.01V9.56863Z" fill="#F7F7F7"/>
<path d="M1111 8L1120.33 18.1961H1111V8Z" fill="#E0E2E5"/>
<path d="M1090.01 18.196H1120.33V46.4313C1120.33 46.8474 1120.16 47.2464 1119.87 47.5405C1119.58 47.8347 1119.18 48 1118.77 48H1091.56C1091.15 48 1090.75 47.8347 1090.46 47.5405C1090.17 47.2464 1090.01 46.8474 1090.01 46.4313V18.196Z" fill="#F7F7F7"/>
<path d="M1111.49 35.5079C1111.07 35.0428 1110.25 34.8279 1109.08 34.8279C1108.44 34.8279 1107.77 34.8996 1107.13 35.0067C1106.7 34.6134 1106.35 34.1479 1105.99 33.6828C1105.74 33.3251 1105.5 32.9671 1105.28 32.5734C1105.64 31.5714 1105.85 30.4981 1105.92 29.4243C1105.92 28.4584 1105.53 27.4204 1104.47 27.4204C1104.11 27.4204 1103.76 27.6353 1103.58 27.9573C1103.12 28.7447 1103.3 30.3549 1104.04 32.0369C1103.79 32.7883 1103.51 33.5396 1103.19 34.3624C1102.91 35.0785 1102.59 35.7585 1102.2 36.4024C1101.1 36.8318 1098.79 37.9055 1098.58 39.0863C1098.51 39.4443 1098.61 39.802 1098.9 40.0169C1099.15 40.2314 1099.5 40.3745 1099.86 40.3385C1101.24 40.3385 1102.62 38.4063 1103.58 36.7247C1104.11 36.5455 1104.64 36.3667 1105.21 36.2235C1105.81 36.0804 1106.38 35.9373 1106.92 35.8298C1108.4 37.1181 1109.72 37.333 1110.36 37.333C1111.24 37.333 1111.6 36.9392 1111.7 36.6173C1111.85 36.2235 1111.77 35.7941 1111.49 35.5079ZM1110.53 36.1879C1110.5 36.4381 1110.21 36.6173 1109.86 36.6173C1109.75 36.6173 1109.65 36.6173 1109.54 36.5812C1108.83 36.4024 1108.16 36.0447 1107.59 35.5792C1108.06 35.508 1108.53 35.4722 1109.01 35.4722C1109.33 35.4722 1109.65 35.5075 1109.97 35.5435C1110.28 35.6153 1110.64 35.7585 1110.53 36.1879ZM1104.18 28.2792C1104.25 28.1718 1104.36 28.1004 1104.5 28.0647C1104.86 28.0647 1104.93 28.4585 1104.93 28.8161C1104.89 29.6309 1104.75 30.4373 1104.5 31.2137C1103.9 29.6749 1103.97 28.6373 1104.18 28.2792ZM1106.17 35.1498C1105.78 35.2216 1105.39 35.329 1105 35.4361C1104.72 35.5079 1104.43 35.6153 1104.11 35.6871C1104.25 35.3738 1104.39 35.0635 1104.54 34.7565C1104.72 34.3628 1104.86 33.969 1105 33.5753C1105.14 33.7902 1105.25 33.969 1105.39 34.1479C1105.64 34.5059 1105.92 34.8279 1106.17 35.1498ZM1101.88 37.2255C1100.99 38.6569 1100.1 39.5871 1099.61 39.5871C1099.54 39.5871 1099.43 39.5518 1099.4 39.5157C1099.35 39.4803 1099.31 39.43 1099.29 39.3722C1099.27 39.3143 1099.27 39.2519 1099.29 39.1937C1099.36 38.6569 1100.39 37.9055 1101.88 37.2255Z" fill="#CD433B"/>
<path d="M1106.33 12.7059H1088.45C1088.02 12.7059 1087.67 13.0571 1087.67 13.4902V20.1569C1087.67 20.5901 1088.02 20.9412 1088.45 20.9412H1106.33C1106.76 20.9412 1107.11 20.5901 1107.11 20.1569V13.4902C1107.11 13.0571 1106.76 12.7059 1106.33 12.7059Z" fill="#CD433B"/>
<path d="M1092.34 18.9804V14.9874H1093.82C1094.13 14.9874 1094.38 15.0447 1094.59 15.1592C1094.79 15.2657 1094.95 15.43 1095.06 15.631C1095.17 15.8298 1095.22 16.0561 1095.22 16.3094C1095.22 16.5655 1095.17 16.7929 1095.06 16.9917C1094.95 17.1921 1094.79 17.3555 1094.59 17.4615C1094.38 17.5749 1094.12 17.6313 1093.81 17.6313H1092.83V17.0364H1093.72C1093.9 17.0364 1094.04 17.0051 1094.15 16.9431C1094.26 16.8857 1094.35 16.7956 1094.41 16.6855C1094.46 16.5764 1094.49 16.451 1094.49 16.309C1094.49 16.1678 1094.46 16.0431 1094.41 15.9349C1094.35 15.8258 1094.26 15.7377 1094.15 15.6835C1094.04 15.6223 1093.89 15.5917 1093.71 15.5917H1093.06V18.9804H1092.34ZM1097.18 18.9804H1095.84V14.9874H1097.21C1097.6 14.9874 1097.94 15.0674 1098.22 15.2274C1098.51 15.3859 1098.72 15.6141 1098.88 15.9117C1099.03 16.2094 1099.1 16.5655 1099.1 16.98C1099.1 17.3957 1099.03 17.7533 1098.87 18.0525C1098.73 18.3443 1098.5 18.5844 1098.22 18.7408C1097.93 18.9004 1097.59 18.9804 1097.18 18.9804ZM1096.56 18.3545H1097.15C1097.42 18.3545 1097.65 18.3035 1097.84 18.2023C1098.02 18.1 1098.16 17.9474 1098.25 17.7443C1098.35 17.5404 1098.39 17.2855 1098.39 16.98C1098.39 16.6745 1098.35 16.4212 1098.25 16.2196C1098.17 16.0266 1098.03 15.8669 1097.84 15.7655C1097.66 15.6639 1097.44 15.6133 1097.17 15.6133H1096.56V18.3545ZM1099.79 18.9804V14.9874H1102.32V15.5937H1100.5V16.678H1102.15V17.2843H1100.5V18.9804H1099.79Z" fill="#F7F7F7"/>
</g>
<rect x="1172" width="56" height="56" rx="8" fill="white"/>
<g clip-path="url(#clip12_144_3729)">
<path d="M1186.01 9.56863C1186.01 9.1526 1186.17 8.75362 1186.46 8.45944C1186.75 8.16527 1187.15 8 1187.56 8H1207V18.1961H1186.01V9.56863Z" fill="#F7F7F7"/>
<path d="M1207 8L1216.33 18.1961H1207V8Z" fill="#E0E2E5"/>
<path d="M1186.01 18.196H1216.33V46.4313C1216.33 46.8474 1216.16 47.2464 1215.87 47.5405C1215.58 47.8347 1215.18 48 1214.77 48H1187.56C1187.15 48 1186.75 47.8347 1186.46 47.5405C1186.17 47.2464 1186.01 46.8474 1186.01 46.4313V18.196Z" fill="#F7F7F7"/>
<mask id="mask7_144_3729" style="mask-type:alpha" maskUnits="userSpaceOnUse" x="1189" y="22" width="24" height="24">
<path d="M1189.5 22.1177H1212.83V45.6471H1189.5V22.1177Z" fill="#D9D9D9"/>
</mask>
<g mask="url(#mask7_144_3729)">
<path d="M1192.91 42.2157V41.1032H1209.43V42.2157H1192.91ZM1192.91 38.3224V37.2102H1203.6V38.3224H1192.91ZM1192.91 34.4385V33.3263H1209.43V34.4385H1192.91ZM1192.91 30.5455V29.433H1203.6V30.5455H1192.91ZM1192.91 26.6616V25.5491H1209.43V26.6616H1192.91Z" fill="#3F9FE8"/>
</g>
<path d="M1202.33 12.7059H1184.45C1184.02 12.7059 1183.67 13.0571 1183.67 13.4902V20.1569C1183.67 20.5901 1184.02 20.9412 1184.45 20.9412H1202.33C1202.76 20.9412 1203.11 20.5901 1203.11 20.1569V13.4902C1203.11 13.0571 1202.76 12.7059 1202.33 12.7059Z" fill="#3F9FE8"/>
<path d="M1186.06 18.9804L1184.95 14.9875H1185.72L1186.43 17.9216H1186.47L1187.23 14.9875H1187.93L1188.69 17.9236H1188.73L1189.44 14.9875H1190.21L1189.1 18.9804H1188.39L1187.6 16.1789H1187.56L1186.77 18.9804H1186.06ZM1194.03 16.9844C1194.03 17.4142 1193.95 17.7828 1193.79 18.0895C1193.64 18.3949 1193.42 18.6287 1193.14 18.7914C1192.87 18.9538 1192.56 19.0349 1192.21 19.0349C1191.87 19.0349 1191.56 18.9538 1191.28 18.7914C1191.01 18.6275 1190.79 18.393 1190.63 18.0875C1190.48 17.7808 1190.4 17.413 1190.4 16.984C1190.4 16.5538 1190.48 16.1859 1190.63 15.8804C1190.79 15.5738 1191.01 15.3393 1191.28 15.1765C1191.56 15.0142 1191.87 14.933 1192.21 14.933C1192.56 14.933 1192.87 15.0142 1193.14 15.1765C1193.42 15.3393 1193.64 15.5738 1193.79 15.8804C1193.95 16.1863 1194.03 16.5542 1194.03 16.9844ZM1193.31 16.9844C1193.31 16.6812 1193.27 16.4259 1193.17 16.2177C1193.08 16.0087 1192.95 15.8506 1192.78 15.744C1192.61 15.6346 1192.42 15.5782 1192.21 15.582C1192 15.582 1191.81 15.6361 1191.64 15.744C1191.48 15.8506 1191.35 16.0087 1191.26 16.2177C1191.16 16.4255 1191.12 16.6812 1191.12 16.984C1191.12 17.2867 1191.16 17.5428 1191.26 17.7522C1191.35 17.96 1191.48 18.1181 1191.65 18.2259C1191.81 18.3326 1192 18.3859 1192.21 18.3859C1192.43 18.3859 1192.62 18.3326 1192.78 18.2259C1192.95 18.1181 1193.08 17.96 1193.17 17.7522C1193.27 17.5428 1193.31 17.2871 1193.31 16.9844ZM1194.71 18.9804V14.9875H1196.2C1196.5 14.9875 1196.75 15.0408 1196.96 15.1475C1197.17 15.2542 1197.32 15.4036 1197.43 15.5957C1197.54 15.7871 1197.59 16.0098 1197.59 16.2647C1197.59 16.5204 1197.54 16.7432 1197.43 16.9314C1197.32 17.1185 1197.16 17.2636 1196.96 17.3663C1196.75 17.4675 1196.49 17.5181 1196.19 17.5181H1195.13V16.9181H1196.09C1196.27 16.9181 1196.41 16.893 1196.53 16.8436C1196.64 16.7926 1196.72 16.7197 1196.78 16.6232C1196.83 16.5259 1196.86 16.4063 1196.86 16.2647C1196.86 16.1228 1196.83 16.002 1196.78 15.902C1196.72 15.7993 1196.63 15.7183 1196.52 15.6718C1196.41 15.6185 1196.26 15.5918 1196.09 15.5918H1195.43V18.9804H1194.71ZM1196.76 17.171L1197.74 18.9804H1196.94L1195.97 17.171H1196.76ZM1199.59 18.9804H1198.25V14.9875H1199.62C1200.01 14.9875 1200.35 15.0675 1200.63 15.2275C1200.92 15.3859 1201.13 15.6142 1201.28 15.9118C1201.44 16.2095 1201.51 16.5655 1201.51 16.98C1201.51 17.3957 1201.44 17.7534 1201.28 18.0526C1201.14 18.3443 1200.91 18.5844 1200.62 18.7408C1200.34 18.9004 1199.99 18.9804 1199.59 18.9804ZM1198.97 18.3546H1199.56C1199.83 18.3546 1200.06 18.3036 1200.25 18.2024C1200.43 18.0996 1200.58 17.9387 1200.66 17.7444C1200.76 17.5404 1200.8 17.2855 1200.8 16.98C1200.8 16.6746 1200.75 16.4212 1200.66 16.2196C1200.58 16.0267 1200.43 15.8671 1200.25 15.7655C1200.07 15.664 1199.85 15.6134 1199.58 15.6134H1198.97V18.3546Z" fill="#F7F7F7"/>
</g>
<rect x="1268" width="56" height="56" rx="8" fill="white"/>
<g clip-path="url(#clip13_144_3729)">
<path d="M1282.01 9.56863C1282.01 9.1526 1282.17 8.75362 1282.46 8.45944C1282.75 8.16527 1283.15 8 1283.56 8H1303V18.1961H1282.01V9.56863Z" fill="#F7F7F7"/>
<path d="M1303 8L1312.33 18.1961H1303V8Z" fill="#E0E2E5"/>
<path d="M1282.01 18.196H1312.33V46.4313C1312.33 46.8474 1312.16 47.2464 1311.87 47.5405C1311.58 47.8347 1311.18 48 1310.77 48H1283.56C1283.15 48 1282.75 47.8347 1282.46 47.5405C1282.17 47.2464 1282.01 46.8474 1282.01 46.4313V18.196Z" fill="#F7F7F7"/>
<mask id="mask8_144_3729" style="mask-type:alpha" maskUnits="userSpaceOnUse" x="1285" y="22" width="24" height="24">
<path d="M1285.5 22.1177H1308.83V45.6471H1285.5V22.1177Z" fill="#D9D9D9"/>
</mask>
<g mask="url(#mask8_144_3729)">
<path d="M1297.72 33.3263H1305.28C1305.15 31.289 1304.36 29.531 1302.92 28.0525C1301.48 26.5745 1299.75 25.789 1297.72 25.6961V33.3263ZM1296.61 42.0686V25.6961C1294.49 25.8255 1292.7 26.6815 1291.23 28.2639C1289.77 29.8463 1289.04 31.7192 1289.04 33.8823C1289.04 36.0455 1289.77 37.918 1291.23 39.5008C1292.7 41.0831 1294.49 41.9392 1296.61 42.0686ZM1297.72 42.0686C1299.75 41.9757 1301.48 41.1902 1302.92 39.7117C1304.35 38.2337 1305.14 36.4761 1305.28 34.4384H1297.72V42.0686ZM1297.17 43.1961C1295.89 43.1961 1294.69 42.9517 1293.57 42.4627C1292.44 41.9737 1291.47 41.3106 1290.64 40.4721C1289.8 39.6341 1289.15 38.6486 1288.66 37.5157C1288.18 36.3823 1287.93 35.1721 1287.93 33.8843C1287.93 32.5957 1288.18 31.3851 1288.66 30.2513C1289.15 29.118 1289.8 28.1321 1290.63 27.2937C1291.46 26.4553 1292.44 25.7917 1293.56 25.3023C1294.69 24.8129 1295.89 24.5686 1297.16 24.5686C1298.44 24.5686 1299.64 24.8133 1300.76 25.3031C1301.89 25.7925 1302.86 26.4564 1303.7 27.2949C1304.53 28.1333 1305.19 29.1184 1305.67 30.251C1306.16 31.3831 1306.4 32.5949 1306.4 33.8851C1306.4 35.1706 1306.16 36.3792 1305.67 37.5113C1305.19 38.6435 1304.53 39.6298 1303.7 40.4702C1302.87 41.3102 1301.89 41.9745 1300.77 42.4631C1299.64 42.9517 1298.44 43.1961 1297.17 43.1961Z" fill="#E7782A"/>
</g>
<path d="M1298.33 12.7059H1280.45C1280.02 12.7059 1279.67 13.0571 1279.67 13.4902V20.1569C1279.67 20.5901 1280.02 20.9412 1280.45 20.9412H1298.33C1298.76 20.9412 1299.11 20.5901 1299.11 20.1569V13.4902C1299.11 13.0571 1298.76 12.7059 1298.33 12.7059Z" fill="#E7782A"/>
<path d="M1284.34 18.9804V14.9874H1285.82C1286.13 14.9874 1286.38 15.0447 1286.59 15.1592C1286.79 15.2657 1286.95 15.43 1287.06 15.631C1287.17 15.8298 1287.22 16.0561 1287.22 16.3094C1287.22 16.5655 1287.17 16.7929 1287.06 16.9917C1286.95 17.1921 1286.79 17.3555 1286.59 17.4615C1286.38 17.5749 1286.12 17.6313 1285.81 17.6313H1284.83V17.0364H1285.72C1285.9 17.0364 1286.04 17.0051 1286.15 16.9431C1286.26 16.8857 1286.35 16.7956 1286.41 16.6855C1286.46 16.5764 1286.49 16.451 1286.49 16.309C1286.49 16.1678 1286.46 16.0431 1286.41 15.9349C1286.35 15.8258 1286.26 15.7377 1286.15 15.6835C1286.04 15.6223 1285.89 15.5917 1285.71 15.5917H1285.06V18.9804H1284.34ZM1287.84 18.9804V14.9874H1289.33C1289.63 14.9874 1289.89 15.0447 1290.09 15.1592C1290.3 15.2733 1290.46 15.4306 1290.56 15.631C1290.67 15.8298 1290.72 16.0561 1290.72 16.3094C1290.72 16.5655 1290.67 16.7929 1290.56 16.9917C1290.45 17.1921 1290.29 17.3555 1290.09 17.4615C1289.88 17.5749 1289.62 17.6313 1289.32 17.6313H1288.33V17.0364H1289.22C1289.4 17.0364 1289.54 17.0051 1289.66 16.9431C1289.77 16.8804 1289.85 16.7949 1289.91 16.6855C1289.96 16.5764 1289.99 16.451 1289.99 16.309C1289.99 16.1678 1289.96 16.0431 1289.91 15.9349C1289.85 15.8258 1289.76 15.7376 1289.65 15.6835C1289.54 15.6223 1289.4 15.5917 1289.22 15.5917H1288.56V18.9804H1287.84ZM1291.17 15.5937V14.9874H1294.33V15.5937H1293.11V18.9804H1292.39V15.5937H1291.17Z" fill="#F7F7F7"/>
</g>
<rect x="1364" width="56" height="56" rx="8" fill="white"/>
<g clip-path="url(#clip14_144_3729)">
<path d="M1378.01 9.56863C1378.01 9.1526 1378.17 8.75362 1378.46 8.45944C1378.75 8.16527 1379.15 8 1379.56 8H1399V18.1961H1378.01V9.56863Z" fill="#F7F7F7"/>
<path d="M1399 8L1408.33 18.1961H1399V8Z" fill="#E0E2E5"/>
<path d="M1378.01 18.196H1408.33V46.4313C1408.33 46.8474 1408.16 47.2464 1407.87 47.5405C1407.58 47.8347 1407.18 48 1406.77 48H1379.56C1379.15 48 1378.75 47.8347 1378.46 47.5405C1378.17 47.2464 1378.01 46.8474 1378.01 46.4313V18.196Z" fill="#F7F7F7"/>
<path d="M1384.36 40.5H1389.53C1389.53 40.3176 1389.54 40.1321 1389.55 39.9439C1389.56 39.7552 1389.58 39.5698 1389.59 39.3874H1384.36C1384.32 39.3888 1384.28 39.3821 1384.24 39.3675C1384.2 39.3529 1384.17 39.3309 1384.14 39.3027C1384.11 39.2742 1384.09 39.2403 1384.08 39.203C1384.06 39.1657 1384.06 39.1258 1384.06 39.0858V27.2082C1384.06 27.1682 1384.06 27.1283 1384.08 27.091C1384.09 27.0537 1384.11 27.0198 1384.14 26.9913C1384.17 26.9632 1384.2 26.9412 1384.24 26.9266C1384.28 26.912 1384.32 26.9052 1384.36 26.9066H1400.02C1400.06 26.9062 1400.1 26.9137 1400.13 26.9287C1400.17 26.9437 1400.2 26.9659 1400.23 26.994C1400.26 27.0221 1400.28 27.0555 1400.29 27.0923C1400.31 27.129 1400.32 27.1684 1400.32 27.2082V28.4996C1400.5 28.4827 1400.68 28.4682 1400.86 28.4568C1401.05 28.445 1401.23 28.4392 1401.42 28.4392V27.2078C1401.42 26.8243 1401.28 26.4925 1401 26.2133C1400.73 25.9337 1400.4 25.7941 1400.02 25.7941H1384.36C1383.97 25.7941 1383.64 25.9337 1383.37 26.2133C1383.09 26.4925 1382.95 26.8239 1382.95 27.2082V39.0858C1382.95 39.4701 1383.09 39.8015 1383.37 40.0807C1383.64 40.3603 1383.97 40.5 1384.36 40.5Z" fill="#4186E2"/>
<path d="M1397.55 41.9706C1396.73 41.9706 1395.97 41.8161 1395.26 41.5067C1394.57 41.2097 1393.94 40.7827 1393.41 40.2487C1392.88 39.7193 1392.47 39.0953 1392.17 38.3765C1391.87 37.6573 1391.72 36.8863 1391.72 36.0632C1391.72 35.244 1391.87 34.4781 1392.17 33.7655C1392.46 33.0693 1392.88 32.4366 1393.41 31.9028C1393.94 31.3699 1394.57 30.9468 1395.26 30.6573C1395.97 30.3565 1396.73 30.2059 1397.55 30.2059C1398.36 30.2059 1399.12 30.3565 1399.83 30.6573C1400.52 30.9468 1401.15 31.3699 1401.68 31.9028C1402.21 32.4367 1402.64 33.0693 1402.93 33.7655C1403.23 34.4781 1403.38 35.244 1403.38 36.0636C1403.38 36.8863 1403.23 37.6573 1402.93 38.3765C1402.62 39.0953 1402.21 39.7193 1401.68 40.2487C1401.15 40.7827 1400.52 41.2097 1399.83 41.5067C1399.12 41.8161 1398.36 41.9706 1397.55 41.9706ZM1397.55 41.2989C1397.92 40.8944 1398.24 40.4396 1398.49 39.9475C1398.74 39.4616 1398.94 38.8926 1399.09 38.2401H1396.01C1396.16 38.8832 1396.36 39.451 1396.61 39.9444C1396.86 40.4384 1397.17 40.8944 1397.55 41.2989ZM1396.57 41.1726C1396.29 40.7965 1396.03 40.3585 1395.81 39.8589C1395.58 39.3386 1395.41 38.7962 1395.29 38.2401H1392.84C1393.24 39.0401 1393.73 39.6722 1394.32 40.1357C1394.92 40.5993 1395.67 40.9451 1396.57 41.173V41.1726ZM1398.54 41.1632C1399.33 40.9863 1400.07 40.6337 1400.72 40.131C1401.36 39.6267 1401.89 38.9799 1402.25 38.2401H1399.82C1399.67 38.7922 1399.49 39.3322 1399.26 39.8553C1399.05 40.351 1398.8 40.7871 1398.54 41.1632ZM1392.62 37.5373H1395.16C1395.12 37.2784 1395.1 37.018 1395.09 36.7569C1395.08 36.5258 1395.07 36.2945 1395.07 36.0632C1395.07 35.813 1395.08 35.5769 1395.09 35.3534C1395.11 35.1111 1395.13 34.8695 1395.17 34.6295H1392.62C1392.55 34.8565 1392.49 35.0892 1392.46 35.3251C1392.43 35.5487 1392.41 35.795 1392.41 36.0632C1392.41 36.3353 1392.43 36.5887 1392.46 36.8216C1392.49 37.0553 1392.54 37.2938 1392.62 37.5373ZM1395.88 37.5373H1399.23C1399.27 37.2255 1399.3 36.9601 1399.32 36.7408C1399.34 36.2989 1399.34 35.8557 1399.32 35.4138C1399.3 35.1513 1399.27 34.8897 1399.23 34.6295H1395.88C1395.84 34.8897 1395.81 35.1513 1395.79 35.4138C1395.76 35.8557 1395.76 36.2989 1395.79 36.7408C1395.8 36.9601 1395.83 37.2255 1395.88 37.5373ZM1399.92 37.5373H1402.47C1402.55 37.2938 1402.6 37.055 1402.63 36.8216C1402.67 36.5883 1402.68 36.3353 1402.68 36.0632C1402.68 35.795 1402.67 35.5487 1402.63 35.3251C1402.6 35.0891 1402.55 34.8564 1402.47 34.6295H1399.94C1399.97 34.9706 1400 35.2491 1400.01 35.4636C1400.04 35.89 1400.04 36.3181 1400.01 36.7444C1399.99 37.0093 1399.96 37.2737 1399.92 37.5373ZM1399.81 33.9271H1402.25C1401.89 33.1357 1401.39 32.4895 1400.75 31.9891C1400.11 31.4887 1399.37 31.1581 1398.52 30.9977C1398.81 31.3875 1399.06 31.8251 1399.27 32.3106C1399.49 32.7961 1399.67 33.335 1399.81 33.9271ZM1396.01 33.9271H1399.11C1398.98 33.354 1398.77 32.7999 1398.5 32.2781C1398.25 31.777 1397.93 31.3124 1397.55 30.8965C1397.2 31.2189 1396.91 31.6169 1396.67 32.091C1396.43 32.5648 1396.21 33.1769 1396.01 33.9271ZM1392.84 33.9271H1395.3C1395.42 33.3851 1395.59 32.8559 1395.8 32.3467C1396.01 31.8751 1396.26 31.4262 1396.56 31.0075C1395.71 31.1718 1394.98 31.5001 1394.35 31.9918C1393.72 32.4844 1393.22 33.1291 1392.84 33.9271Z" fill="#4186E2" stroke="#4186E2" stroke-width="0.5"/>
<path d="M1393.94 12.7059H1376.45C1376.02 12.7059 1375.67 13.0571 1375.67 13.4902V20.1569C1375.67 20.5901 1376.02 20.9412 1376.45 20.9412H1393.94C1394.37 20.9412 1394.72 20.5901 1394.72 20.1569V13.4902C1394.72 13.0571 1394.37 12.7059 1393.94 12.7059Z" fill="#4186E2"/>
<path d="M1378.45 18.9804L1377.33 14.9874H1378.11L1378.82 17.9215H1378.86L1379.62 14.9874H1380.32L1381.08 17.9235H1381.12L1381.83 14.9874H1382.6L1381.48 18.9804H1380.78L1379.98 16.1788H1379.95L1379.16 18.9804H1378.45ZM1383.1 18.9804V14.9874H1385.67V15.5937H1383.82V16.678H1385.54V17.2843H1383.82V18.3741H1385.69V18.9804H1383.1ZM1386.4 18.9804V14.9874H1387.92C1388.21 14.9874 1388.44 15.0329 1388.63 15.1239C1388.82 15.2137 1388.97 15.3364 1389.06 15.4925C1389.15 15.6486 1389.2 15.8251 1389.2 16.0227C1389.2 16.1851 1389.17 16.3243 1389.11 16.44C1389.05 16.5518 1388.96 16.6475 1388.86 16.7188C1388.75 16.7912 1388.64 16.8434 1388.51 16.8729V16.9121C1388.65 16.9196 1388.79 16.9631 1388.91 17.0423C1389.04 17.1208 1389.15 17.2306 1389.23 17.3737C1389.32 17.5168 1389.36 17.6898 1389.36 17.8925C1389.36 18.0992 1389.31 18.2847 1389.21 18.4502C1389.11 18.6137 1388.96 18.7431 1388.76 18.8384C1388.56 18.9329 1388.31 18.9804 1388.01 18.9804H1386.4ZM1387.12 18.3761H1387.89C1388.15 18.3761 1388.34 18.3259 1388.45 18.2259C1388.57 18.1243 1388.63 17.9945 1388.63 17.8361C1388.63 17.7224 1388.6 17.6107 1388.54 17.514C1388.48 17.4173 1388.4 17.3396 1388.29 17.2902C1388.19 17.2341 1388.06 17.2062 1387.91 17.2062H1387.12V18.3761ZM1387.12 16.6859H1387.83C1387.95 16.6859 1388.07 16.6627 1388.16 16.6172C1388.26 16.5745 1388.34 16.5064 1388.4 16.4204C1388.46 16.3349 1388.49 16.2333 1388.49 16.1164C1388.49 15.9615 1388.43 15.8341 1388.32 15.7341C1388.22 15.6341 1388.06 15.5839 1387.85 15.5839H1387.12V16.6859ZM1389.98 18.9804V14.9874H1391.46C1391.77 14.9874 1392.02 15.0447 1392.23 15.1592C1392.44 15.2733 1392.59 15.4306 1392.7 15.631C1392.81 15.8298 1392.86 16.0561 1392.86 16.3094C1392.86 16.5655 1392.81 16.7929 1392.7 16.9917C1392.59 17.1921 1392.43 17.3555 1392.23 17.4615C1392.02 17.5749 1391.76 17.6313 1391.46 17.6313H1390.47V17.0364H1391.36C1391.54 17.0364 1391.68 17.0051 1391.8 16.9431C1391.91 16.8804 1391.99 16.7949 1392.05 16.6855C1392.1 16.5764 1392.13 16.451 1392.13 16.309C1392.13 16.1678 1392.1 16.0431 1392.05 15.9349C1391.99 15.8258 1391.9 15.7376 1391.79 15.6835C1391.68 15.6223 1391.53 15.5917 1391.35 15.5917H1390.7V18.9804H1389.98Z" fill="#F7F7F7"/>
</g>
<rect x="1460" width="56" height="56" rx="8" fill="white"/>
<g clip-path="url(#clip15_144_3729)">
<path d="M1474.01 9.56863C1474.01 9.1526 1474.17 8.75362 1474.46 8.45944C1474.75 8.16527 1475.15 8 1475.56 8H1495V18.1961H1474.01V9.56863Z" fill="#F7F7F7"/>
<path d="M1495 8L1504.33 18.1961H1495V8Z" fill="#E0E2E5"/>
<path d="M1474.01 18.196H1504.33V46.4313C1504.33 46.8474 1504.16 47.2464 1503.87 47.5405C1503.58 47.8347 1503.18 48 1502.77 48H1475.56C1475.15 48 1474.75 47.8347 1474.46 47.5405C1474.17 47.2464 1474.01 46.8474 1474.01 46.4313V18.196Z" fill="#F7F7F7"/>
<mask id="mask9_144_3729" style="mask-type:alpha" maskUnits="userSpaceOnUse" x="1477" y="22" width="24" height="24">
<path d="M1477.5 22.1177H1500.83V45.6471H1477.5V22.1177Z" fill="#D9D9D9"/>
</mask>
<g mask="url(#mask9_144_3729)">
<path d="M1493.05 36.6729L1495.75 33.9482L1494.95 33.1114L1493.63 34.429V31.0918H1492.47V34.429L1491.16 33.1114L1490.35 33.9482L1493.05 36.6729ZM1481.34 41.2353C1480.95 41.2353 1480.63 41.0957 1480.35 40.8169C1480.07 40.5377 1479.93 40.2059 1479.93 39.8212V27.9435C1479.93 27.5592 1480.07 27.2271 1480.35 26.9482C1480.63 26.669 1480.95 26.5294 1481.34 26.5294H1497C1497.38 26.5294 1497.71 26.669 1497.98 26.9482C1498.26 27.2271 1498.4 27.5588 1498.4 27.9435V39.8212C1498.4 40.2055 1498.26 40.5377 1497.98 40.8165C1497.71 41.0957 1497.38 41.2353 1497 41.2353H1481.34ZM1481.34 40.1228H1497C1497.07 40.1228 1497.14 40.0914 1497.2 40.0286C1497.26 39.9659 1497.3 39.8965 1497.3 39.8212V27.9435C1497.3 27.8678 1497.26 27.7988 1497.2 27.7357C1497.14 27.6729 1497.07 27.6416 1497 27.6416H1481.34C1481.26 27.6416 1481.19 27.6729 1481.13 27.7357C1481.07 27.7988 1481.04 27.8678 1481.04 27.9435V39.8212C1481.04 39.8965 1481.07 39.9659 1481.13 40.029C1481.19 40.0918 1481.26 40.1228 1481.34 40.1228ZM1482.98 36.6729H1483.96V32.082H1485.47V35.1475H1486.45V32.082H1488.07V36.6729H1489.06V31.9216C1489.06 31.7177 1488.97 31.5286 1488.79 31.3541C1488.62 31.1792 1488.43 31.0918 1488.23 31.0918H1483.81C1483.6 31.0918 1483.42 31.1792 1483.24 31.3545C1483.07 31.5286 1482.98 31.718 1482.98 31.9216V36.6729Z" fill="#34BEC4"/>
</g>
<path d="M1490.33 12.7059H1472.45C1472.02 12.7059 1471.67 13.0571 1471.67 13.4902V20.1569C1471.67 20.5901 1472.02 20.9412 1472.45 20.9412H1490.33C1490.76 20.9412 1491.11 20.5901 1491.11 20.1569V13.4902C1491.11 13.0571 1490.76 12.7059 1490.33 12.7059Z" fill="#34BEC4"/>
<path d="M1472.67 15.629H1473.34L1474.04 17.3537H1474.07L1474.77 15.629H1475.43V18.1961H1474.91V16.5255H1474.89L1474.23 18.1835H1473.87L1473.22 16.5192H1473.19V18.1961H1472.67L1472.67 15.629ZM1476.37 18.2326C1476.25 18.2326 1476.14 18.211 1476.05 18.1686C1475.95 18.1278 1475.88 18.0611 1475.82 17.9765C1475.77 17.8914 1475.74 17.7855 1475.74 17.6584C1475.74 17.5514 1475.76 17.4616 1475.8 17.389C1475.84 17.3161 1475.89 17.2577 1475.96 17.2133C1476.02 17.169 1476.1 17.1357 1476.19 17.1133C1476.27 17.0906 1476.36 17.0749 1476.46 17.0655C1476.57 17.0537 1476.66 17.0431 1476.72 17.033C1476.79 17.022 1476.84 17.0063 1476.87 16.9855C1476.89 16.9754 1476.9 16.9615 1476.91 16.9452C1476.92 16.9289 1476.92 16.9108 1476.92 16.8926V16.8851C1476.92 16.8055 1476.89 16.7439 1476.84 16.7008C1476.79 16.6577 1476.72 16.6357 1476.63 16.6357C1476.54 16.6357 1476.46 16.6569 1476.41 16.6996C1476.35 16.738 1476.31 16.7937 1476.3 16.8577L1475.81 16.8173C1475.83 16.7004 1475.88 16.5992 1475.95 16.5141C1476.03 16.4279 1476.12 16.362 1476.23 16.3161C1476.35 16.269 1476.48 16.2459 1476.64 16.2459C1476.74 16.2459 1476.84 16.2584 1476.94 16.2835C1477.04 16.3086 1477.13 16.3475 1477.2 16.4C1477.28 16.4526 1477.34 16.5204 1477.38 16.6031C1477.43 16.6851 1477.45 16.7831 1477.45 16.8973V18.1961H1476.95V17.9294H1476.93C1476.9 17.9897 1476.86 18.0435 1476.81 18.0882C1476.76 18.1333 1476.69 18.169 1476.62 18.1949C1476.55 18.22 1476.47 18.2326 1476.37 18.2326ZM1476.52 17.8639C1476.6 17.8639 1476.67 17.8482 1476.73 17.8177C1476.79 17.7882 1476.84 17.7441 1476.87 17.6898C1476.9 17.6355 1476.92 17.5722 1476.92 17.5079V17.3039C1476.9 17.3169 1476.88 17.3269 1476.85 17.3337C1476.82 17.3428 1476.79 17.3507 1476.76 17.3573C1476.72 17.3643 1476.69 17.3707 1476.65 17.3765L1476.55 17.3902C1476.49 17.3992 1476.44 17.4137 1476.39 17.4341C1476.35 17.4512 1476.31 17.4793 1476.28 17.5157C1476.26 17.5519 1476.24 17.5962 1476.24 17.6412C1476.24 17.7133 1476.27 17.769 1476.32 17.8075C1476.38 17.847 1476.45 17.8667 1476.52 17.8639H1476.52ZM1477.82 18.1961V16.2706H1478.34V16.6067H1478.36C1478.39 16.4875 1478.45 16.3973 1478.53 16.3361C1478.61 16.2741 1478.71 16.2435 1478.81 16.2435C1478.87 16.2438 1478.93 16.25 1478.98 16.262V16.7361C1478.91 16.7174 1478.83 16.7078 1478.76 16.7075C1478.68 16.7075 1478.61 16.7243 1478.55 16.7584C1478.49 16.7921 1478.44 16.8427 1478.4 16.9043C1478.37 16.966 1478.35 17.0362 1478.35 17.1071V18.1961H1477.82ZM1479.7 17.642L1479.7 17.0016H1479.78L1480.39 16.271H1481L1480.17 17.2384H1480.05L1479.7 17.642ZM1479.22 18.1961V15.629H1479.75V18.1961H1479.22ZM1480.41 18.1961L1479.85 17.3577L1480.2 16.9804L1481.03 18.1961H1480.41ZM1481.85 18.2275C1481.7 18.2275 1481.57 18.1898 1481.45 18.1145C1481.33 18.0384 1481.24 17.9271 1481.17 17.78C1481.11 17.6322 1481.07 17.4506 1481.07 17.2361C1481.07 17.0153 1481.11 16.8322 1481.18 16.6859C1481.25 16.5388 1481.34 16.429 1481.46 16.3565C1481.57 16.2833 1481.71 16.245 1481.84 16.2459C1481.94 16.2427 1482.03 16.2615 1482.11 16.3008C1482.18 16.3369 1482.24 16.382 1482.29 16.4365C1482.33 16.4898 1482.36 16.5424 1482.39 16.5941H1482.4V15.6294H1482.93V18.1961H1482.41V17.8879H1482.39C1482.36 17.9456 1482.32 17.9992 1482.28 18.0471C1482.23 18.1019 1482.17 18.1458 1482.11 18.1761C1482.02 18.2125 1481.94 18.2303 1481.85 18.2275ZM1482.01 17.8024C1482.09 17.805 1482.17 17.7803 1482.23 17.7326C1482.29 17.6847 1482.33 17.6184 1482.37 17.5329C1482.4 17.4479 1482.41 17.3479 1482.41 17.2333C1482.41 17.1192 1482.4 17.0196 1482.37 16.9353C1482.34 16.8583 1482.29 16.7904 1482.23 16.7396C1482.17 16.6925 1482.09 16.6682 1482.01 16.6706C1481.93 16.6682 1481.86 16.6936 1481.79 16.7424C1481.73 16.7942 1481.68 16.8628 1481.66 16.9404C1481.63 17.0347 1481.61 17.134 1481.61 17.2337C1481.61 17.3455 1481.63 17.4447 1481.66 17.5306C1481.69 17.6157 1481.73 17.6828 1481.79 17.731C1481.86 17.7797 1481.93 17.8049 1482.01 17.8024H1482.01ZM1483.71 18.1961L1483.19 16.2706H1483.72L1484.02 17.5647H1484.04L1484.35 16.2706H1484.87L1485.18 17.5569H1485.2L1485.49 16.2706H1486.02L1485.51 18.1961H1484.95L1484.62 16.9855H1484.6L1484.27 18.1961H1483.71H1483.71ZM1487.09 18.2337C1486.89 18.2337 1486.73 18.1922 1486.59 18.1094C1486.45 18.027 1486.33 17.9062 1486.26 17.7612C1486.19 17.6118 1486.15 17.4384 1486.15 17.2412C1486.15 17.042 1486.19 16.8686 1486.26 16.7196C1486.33 16.5743 1486.45 16.4533 1486.59 16.3714C1486.73 16.2879 1486.89 16.2459 1487.09 16.2459C1487.28 16.2459 1487.45 16.2879 1487.59 16.3714C1487.73 16.4537 1487.84 16.5702 1487.91 16.7196C1487.99 16.8686 1488.03 17.0424 1488.03 17.2412C1488.03 17.438 1487.99 17.6118 1487.91 17.7612C1487.84 17.9065 1487.73 18.0276 1487.59 18.1098C1487.45 18.1922 1487.28 18.2337 1487.09 18.2337ZM1487.09 17.82C1487.17 17.8227 1487.25 17.7959 1487.31 17.7447C1487.37 17.6888 1487.42 17.617 1487.44 17.5369C1487.47 17.4403 1487.49 17.339 1487.49 17.2373C1487.49 17.1255 1487.47 17.0255 1487.44 16.9377C1487.42 16.8576 1487.37 16.7858 1487.31 16.7298C1487.25 16.6779 1487.17 16.6506 1487.09 16.6533C1487.01 16.6508 1486.93 16.678 1486.87 16.7298C1486.8 16.7856 1486.76 16.8574 1486.73 16.9377C1486.7 17.0344 1486.68 17.1356 1486.69 17.2373C1486.69 17.3494 1486.7 17.449 1486.73 17.5369C1486.76 17.6247 1486.81 17.6937 1486.87 17.7447C1486.93 17.7958 1487.01 17.8225 1487.09 17.82ZM1488.86 17.0828V18.1961H1488.34V16.2706H1488.84V16.6106H1488.86C1488.9 16.501 1488.98 16.4077 1489.07 16.3447C1489.17 16.2788 1489.29 16.2459 1489.44 16.2459C1489.57 16.2459 1489.68 16.2753 1489.78 16.3337C1489.88 16.3922 1489.96 16.4757 1490.01 16.5843C1490.07 16.6922 1490.09 16.8208 1490.09 16.9702V18.1961H1489.57V17.0655C1489.57 16.9479 1489.54 16.8557 1489.48 16.7898C1489.42 16.7231 1489.33 16.6894 1489.23 16.6894C1489.16 16.6882 1489.1 16.7043 1489.04 16.7361C1488.98 16.7677 1488.94 16.8147 1488.91 16.8714C1488.88 16.9374 1488.86 17.0099 1488.86 17.0831V17.0828Z" fill="#F7F7F7"/>
</g>
<defs>
<clipPath id="clip0_144_3729">
<rect width="32.6531" height="40" fill="white" transform="translate(31.6735 8)"/>
</clipPath>
<clipPath id="clip1_144_3729">
<rect width="32.6531" height="40" fill="white" transform="translate(127.673 8)"/>
</clipPath>
<clipPath id="clip2_144_3729">
<rect width="32.6531" height="40" fill="white" transform="translate(223.673 8)"/>
</clipPath>
<clipPath id="clip3_144_3729">
<rect width="32.6531" height="40" fill="white" transform="translate(319.673 8)"/>
</clipPath>
<clipPath id="clip4_144_3729">
<rect width="32.6531" height="40" fill="white" transform="translate(415.673 8)"/>
</clipPath>
<clipPath id="clip5_144_3729">
<rect width="32.6531" height="40" fill="white" transform="translate(511.673 8)"/>
</clipPath>
<clipPath id="clip6_144_3729">
<rect width="32.6531" height="40" fill="white" transform="translate(607.673 8)"/>
</clipPath>
<clipPath id="clip7_144_3729">
<rect width="32.6531" height="40" fill="white" transform="translate(703.673 8)"/>
</clipPath>
<clipPath id="clip8_144_3729">
<rect width="32.6531" height="40" fill="white" transform="translate(799.674 8)"/>
</clipPath>
<clipPath id="clip9_144_3729">
<rect width="32.6531" height="40" fill="white" transform="translate(895.674 8)"/>
</clipPath>
<clipPath id="clip10_144_3729">
<rect width="32.6531" height="40" fill="white" transform="translate(991.674 8)"/>
</clipPath>
<clipPath id="clip11_144_3729">
<rect width="32.6531" height="40" fill="white" transform="translate(1087.67 8)"/>
</clipPath>
<clipPath id="clip12_144_3729">
<rect width="32.6531" height="40" fill="white" transform="translate(1183.67 8)"/>
</clipPath>
<clipPath id="clip13_144_3729">
<rect width="32.6531" height="40" fill="white" transform="translate(1279.67 8)"/>
</clipPath>
<clipPath id="clip14_144_3729">
<rect width="32.6531" height="40" fill="white" transform="translate(1375.67 8)"/>
</clipPath>
<clipPath id="clip15_144_3729">
<rect width="32.6531" height="40" fill="white" transform="translate(1471.67 8)"/>
</clipPath>
</defs>
</svg>
