<?xml version="1.0" encoding="utf-8" ?>
<!DOCTYPE svg PUBLIC "-//W3C//DTD SVG 1.1//EN" "http://www.w3.org/Graphics/SVG/1.1/DTD/svg11.dtd">
<svg xmlns="http://www.w3.org/2000/svg" xmlns:xlink="http://www.w3.org/1999/xlink" version="1.1" id="Layer_1" x="0px" y="0px" viewBox="0 0 711.1 308" style="enable-background:new 0 0 711.1 308;" xml:space="preserve"><style type="text/css">.st0{enable-background:new ;} .st1{fill:#1A1A1A;} .st2{fill-rule:evenodd;clip-rule:evenodd;fill:#1A1A1A;}</style><g id="Layer_2_00000013901788079638832030000004276191866620885940_"><g id="Layer_1-2"><g class="st0"><path class="st1" d="M374.7,141.1c-0.8-5.8-6.4-10.2-12.8-10.2c-11.6,0-15.9,9.8-15.9,20.1c0,9.8,4.3,19.6,15.9,19.6 c7.9,0,12.3-5.4,13.3-13.1h12.5c-1.3,14.6-11.4,23.9-25.7,23.9c-18.1,0-28.8-13.5-28.8-30.4c0-17.4,10.7-30.9,28.8-30.9 c12.9,0,23.7,7.5,25.3,21.1h-12.6V141.1z"/><path class="st1" d="M409.5,145.8c5,0.4,12.2-0.6,12.2-7.1c0-4.8-3.9-7.6-8.1-7.6c-5.8,0-8.9,4.3-8.9,10.2h-11.1 c0.4-11.7,8-19.8,19.8-19.8c9.2,0,19.3,5.7,19.3,15.9c0,5.4-2.7,10.2-8,11.7v0.2c6.3,1.4,10.2,6.6,10.2,13 c0,12.1-10.1,18.9-21.3,18.9c-12.9,0-21.6-7.7-21.3-20.9h11.1c0.2,6.2,3.4,11.3,10.1,11.3c5.2,0,9.3-3.6,9.3-9 c0-8.7-7.6-8.5-13.3-8.5L409.5,145.8L409.5,145.8z"/><path class="st1" d="M480.8,121.5H494l21.9,58.5h-13.4l-4.4-13h-21.9l-4.6,13h-13L480.8,121.5z M479.6,157.4h15.2l-7.4-21.5h-0.2 L479.6,157.4z"/><path class="st1" d="M521,121.5h12.9V180H521V121.5z"/></g><g class="st0"><path class="st1" d="M335.7,210h31.6c10.5,0,17.1,7.3,17.1,16.2c0,6.9-2.8,12.1-9.3,14.7v0.2c6.3,1.6,8.1,7.8,8.5,13.7 c0.2,3.7,0.2,10.6,2.5,13.9h-12.9c-1.6-3.7-1.4-9.3-2.1-14c-0.9-6.1-3.3-8.9-9.8-8.9h-12.9v22.9h-12.9V210H335.7z M348.5,236.5 h14.1c5.7,0,8.9-2.5,8.9-8.4c0-5.7-3.1-8.1-8.9-8.1h-14.1V236.5z"/><path class="st1" d="M403.2,250.2c0.3,7.4,3.9,10.7,10.4,10.7c4.7,0,8.4-2.9,9.2-5.5h10.3c-3.3,10-10.3,14.3-19.8,14.3 c-13.4,0-21.6-9.2-21.6-22.3c0-12.7,8.8-22.4,21.6-22.4c14.4,0,21.4,12.1,20.6,25.2L403.2,250.2L403.2,250.2z M422.2,242.8 c-1.1-5.9-3.6-9-9.3-9c-7.4,0-9.5,5.7-9.7,9H422.2z"/><path class="st1" d="M441,210h11.6v58.5H441V210z"/><path class="st1" d="M473.8,219.6h-11.6V210h11.6V219.6z M462.2,226.2h11.6v42.4h-11.6V226.2z"/><path class="st1" d="M482.5,239.2c0.7-10.9,10.4-14.2,19.9-14.2c8.4,0,18.6,1.9,18.6,12.1v22.1c0,3.9,0.4,7.7,1.5,9.4h-11.8 c-0.4-1.3-0.7-2.7-0.8-4.1c-3.7,3.9-9.1,5.2-14.3,5.2c-8,0-14.4-4-14.4-12.7c0-9.6,7.2-11.9,14.4-12.9c7.1-1.1,13.8-0.8,13.8-5.6 c0-5-3.4-5.7-7.5-5.7c-4.4,0-7.3,1.8-7.7,6.4H482.5z M509.4,247.8c-2,1.7-6.1,1.8-9.7,2.5s-6.9,2-6.9,6.2c0,4.3,3.4,5.4,7.1,5.4 c9.1,0,9.4-7.2,9.4-9.8v-4.3H509.4z"/><path class="st1" d="M530.1,210h11.6v21.3h0.2c2.9-4.3,8.1-6.3,13.4-6.3c8.4,0,17.5,6.8,17.5,22.3c0,15.6-9.1,22.4-17.5,22.4 c-6.2,0-11.4-1.9-13.9-6.6h-0.2v5.4h-11.1V210z M551.2,233.8c-6.9,0-9.9,6.5-9.9,13.6s3,13.5,9.9,13.5s9.9-6.5,9.9-13.5 C561.2,240.3,558.1,233.8,551.2,233.8z"/><path class="st1" d="M592.2,219.6h-11.6V210h11.6V219.6z M580.5,226.2h11.6v42.4h-11.6V226.2z"/><path class="st1" d="M601.7,210h11.6v58.5h-11.6V210z"/><path class="st1" d="M634.5,219.6h-11.6V210h11.6V219.6z M622.8,226.2h11.6v42.4h-11.6V226.2z"/><path class="st1" d="M658.4,226.2h8.5v7.8h-8.5v21c0,3.9,1,4.9,4.9,4.9c1.2,0,2.4-0.1,3.6-0.3v9.1c-2,0.3-4.5,0.4-6.8,0.4 c-7.1,0-13.4-1.6-13.4-10.1v-25h-7.1v-7.8h7.1v-12.7h11.6v12.7H658.4z"/><path class="st1" d="M693.4,273.9c-2.5,6.8-6.6,9.6-14.6,9.6c-2.4,0-4.8-0.2-7.1-0.4v-9.6c2.2,0.2,4.5,0.5,6.8,0.4 c4-0.4,5.3-4.6,4-8l-14.9-39.8h12.5l9.6,29h0.2l9.3-29h12.1L693.4,273.9z"/></g></g></g><path class="st2" d="M30,0H0v30v30v30v30v30v30v30v30v30h30v-30v-30h30h30v30v30h30v-30v-30v-30H90v-30v-30V90V60V30V0H60H30z M30,180v-30v-30V90V60V30h30v30v30v30v30v30H30z M150,0h-30v30v30v30v30v30h30h30h30h30h30v-30h-30h-30h-30h-30V90h30h30h30h30V60 h-30h-30h-30h-30V30h30h30h30h30V0h-30h-30h-30H150z M150,180h30v30v30h30h30h30v30h-30h-30h-30h-30v-30v-30V180z"/></svg>